<?xml version="1.0" encoding="UTF-8"?>
<svg xmlns="http://www.w3.org/2000/svg" width="1134.116" height="994.231" version="1.1">
<title>1.25 Дорожные работы</title>
<path style="fill:#ffffff;" d="m 0,949.231 c 0,24.853 20.147,45 45,45 l 1044.116,0 c 24.853,0 45,-20.147 45,-45 c 0,-7.899 -2.079,-15.659 -6.029,-22.5 l -522.058,-904.231 c -8.038,-13.923 -22.894,-22.5 -38.971,-22.5 c -16.077,0 -30.933,8.577 -38.971,22.5 l -522.058,904.231 c -3.950,6.841 -6.029,14.601 -6.029,22.5 z"/>
<path style="fill:none;stroke:#000000;stroke-width:2px;" d="m 1,949.231 c 0,24.301 19.699,44 44,44 l 1044.116,0 c 24.301,0 44,-19.699 44,-44 c 0,-7.724 -2.033,-15.311 -5.895,-22.0 l -522.058,-904.231 c -7.860,-13.614 -22.385,-22.0 -38.105,-22.0 c -15.720,0 -30.245,8.386 -38.105,22.0 l -522.058,904.231 c -3.862,6.689 -5.895,14.276 -5.895,22.0 z"/>
<path style="fill:#ff0000;" d="m 10,949.231 c 0,19.330 15.670,35 35,35 l 1044.116,0 c 19.330,0 35,-15.670 35,-35 c 0,-6.144 -1.617,-12.179 -4.689,-17.5 l -522.058,-904.231 c -6.252,-10.829 -17.807,-17.5 -30.311,-17.5 c -12.504,0 -24.059,6.671 -30.311,17.5 l -522.058,904.231 c -3.072,5.321 -4.689,11.357 -4.689,17.5 z m 125.821,-58.209 c 0,-1.755 0.462,-3.480 1.340,-5.000 l 421.237,-729.604 c 1.786,-3.094 5.087,-5 8.660,-5.000 c 3.573,0 6.873,1.906 8.660,5.000 l 421.237,729.604 c 0.878,1.520 1.340,3.245 1.340,5.000 c 0,5.523 -4.477,10 -10,10 l -842.474,0 c -5.523,0 -10,-4.477 -10,-10 z"/>
<path style="fill:#000000;" d="m 614.434,362.315 c -22.389,0 -35.914,16.887 -35.914,39.123 c 0,34.309 30.565,82.372 53.641,82.372 c 23.077,0 48.751,-23.306 48.751,-54.864 c 0,-26.209 -26.591,-66.632 -66.479,-66.632 z"/>
<path style="fill:#000000;" d="m 585.397,842.949 c 0,15.192 12.316,27.508 27.508,27.508 c 15.192,0 27.508,-12.316 27.508,-27.508 l 0,-122.307 c 0.509,0.032 1.018,0.048 1.528,0.048 c 8.261,0 15.963,-4.171 20.478,-11.089 l 115.127,66.468 c -45.302,30.392 -70.092,14.160 -129.482,94.389 l 306.526,0 l -107.110,-185.520 c -22.803,25.778 -27.079,48.580 -54.772,78.708 l -127.018,-73.334 l -50.249,-187.533 c -0.659,-2.460 -1.923,-4.717 -3.676,-6.564 l -49.210,-51.960 c -2.886,-3.041 -6.893,-4.763 -11.085,-4.763 l -96.891,0 c -5.460,0 -10.505,2.913 -13.235,7.641 l -64.486,111.715 c -2.146,3.717 -3.276,7.934 -3.276,12.226 c 0,13.504 10.947,24.452 24.452,24.452 c 8.736,0 16.808,-4.661 21.176,-12.226 l 6.113,-10.588 l 34.676,20.020 l -10.698,18.529 c -1.341,2.323 -2.047,4.959 -2.047,7.641 c 0,5.460 2.913,10.505 7.641,13.235 l 130.502,75.345 z m -150.904,-286.119 l 39.510,-68.434 l 46.234,0 l -51.069,88.454 z m 109.160,59.141 l 35.164,-60.906 l 25.742,96.070 z"/>
<path style="fill:#000000;" d="m 390.411,829.194 c -2.414,4.182 -3.685,8.925 -3.685,13.754 c 0,15.192 12.316,27.508 27.508,27.508 c 9.828,0 18.909,-5.243 23.823,-13.754 l 76.524,-132.960 c 1.341,-2.323 2.047,-4.959 2.047,-7.641 c 0,-0.623 -0.038,-1.245 -0.114,-1.862 l -4.283,-34.881 l -61.778,-35.667 l 8.253,67.212 z"/>
</svg>