<?xml version="1.0" encoding="UTF-8"?><svg xmlns="http://www.w3.org/2000/svg" xmlns:xlink="http://www.w3.org/1999/xlink" clip-rule="evenodd" stroke-miterlimit="4.00" viewBox="0 0 1920 1080"><desc>SVG generated by Keynote</desc><defs></defs><g transform="matrix(1.00, 0.00, -0.00, -1.00, 0.0, 1080.0)"><g><clipPath id="clip-905"><path d="M 0.0 0.0 L 1920.0 0.0 L 1920.0 1080.0 L 0.0 1080.0 Z M 0.0 0.0 "></path></clipPath><g clip-path="url(#clip-905)"><image xlink:href="../../06DBE9C8-52A0-453A-A7BF-EBF58CF01F35/assets/54F498DCE8E9310272AD5A0F2668F575.jpeg" width="1365.00" height="1023.00" transform="matrix(1.41, 0.00, -0.00, -1.06, 0.0, 1080.0)"></image></g></g><text xml:space="preserve" font-family="Helvetica-Light" font-size="93.0" fill="#FEFFFF" transform="matrix(1.00, 0.00, -0.00, -1.00, 396.0, 939.0)">П</text><text xml:space="preserve" font-family="Helvetica-Light" font-size="93.0" fill="#FEFFFF" transform="matrix(1.00, 0.00, -0.00, -1.00, 460.5, 939.0)">р</text><text xml:space="preserve" font-family="Helvetica-Light" font-size="93.0" fill="#FEFFFF" transform="matrix(1.00, 0.00, -0.00, -1.00, 513.9, 939.0)">о</text><text xml:space="preserve" font-family="Helvetica-Light" font-size="93.0" fill="#FEFFFF" transform="matrix(1.00, 0.00, -0.00, -1.00, 565.6, 939.0)">ф</text><text xml:space="preserve" font-family="Helvetica-Light" font-size="93.0" fill="#FEFFFF" transform="matrix(1.00, 0.00, -0.00, -1.00, 639.9, 939.0)">е</text><text xml:space="preserve" font-family="Helvetica-Light" font-size="93.0" fill="#FEFFFF" transform="matrix(1.00, 0.00, -0.00, -1.00, 688.2, 939.0)">с</text><text xml:space="preserve" font-family="Helvetica-Light" font-size="93.0" fill="#FEFFFF" transform="matrix(1.00, 0.00, -0.00, -1.00, 736.4, 939.0)">с</text><text xml:space="preserve" font-family="Helvetica-Light" font-size="93.0" fill="#FEFFFF" transform="matrix(1.00, 0.00, -0.00, -1.00, 784.7, 939.0)">и</text><text xml:space="preserve" font-family="Helvetica-Light" font-size="93.0" fill="#FEFFFF" transform="matrix(1.00, 0.00, -0.00, -1.00, 835.2, 939.0)">и</text><text xml:space="preserve" font-family="Helvetica-Light" font-size="93.0" fill="#FEFFFF" transform="matrix(1.00, 0.00, -0.00, -1.00, 885.8, 939.0)"> </text><text xml:space="preserve" font-family="Helvetica-Light" font-size="93.0" fill="#FEFFFF" transform="matrix(1.00, 0.00, -0.00, -1.00, 911.6, 939.0)">к</text><text xml:space="preserve" font-family="Helvetica-Light" font-size="93.0" fill="#FEFFFF" transform="matrix(1.00, 0.00, -0.00, -1.00, 957.9, 939.0)">р</text><text xml:space="preserve" font-family="Helvetica-Light" font-size="93.0" fill="#FEFFFF" transform="matrix(1.00, 0.00, -0.00, -1.00, 1011.3, 939.0)">и</text><text xml:space="preserve" font-family="Helvetica-Light" font-size="93.0" fill="#FEFFFF" transform="matrix(1.00, 0.00, -0.00, -1.00, 1061.9, 939.0)">м</text><text xml:space="preserve" font-family="Helvetica-Light" font-size="93.0" fill="#FEFFFF" transform="matrix(1.00, 0.00, -0.00, -1.00, 1124.0, 939.0)">и</text><text xml:space="preserve" font-family="Helvetica-Light" font-size="93.0" fill="#FEFFFF" transform="matrix(1.00, 0.00, -0.00, -1.00, 1174.5, 939.0)">н</text><text xml:space="preserve" font-family="Helvetica-Light" font-size="93.0" fill="#FEFFFF" transform="matrix(1.00, 0.00, -0.00, -1.00, 1224.5, 939.0)">а</text><text xml:space="preserve" font-family="Helvetica-Light" font-size="93.0" fill="#FEFFFF" transform="matrix(1.00, 0.00, -0.00, -1.00, 1272.7, 939.0)">л</text><text xml:space="preserve" font-family="Helvetica-Light" font-size="93.0" fill="#FEFFFF" transform="matrix(1.00, 0.00, -0.00, -1.00, 1325.2, 939.0)">ь</text><text xml:space="preserve" font-family="Helvetica-Light" font-size="93.0" fill="#FEFFFF" transform="matrix(1.00, 0.00, -0.00, -1.00, 1371.7, 939.0)">н</text><text xml:space="preserve" font-family="Helvetica-Light" font-size="93.0" fill="#FEFFFF" transform="matrix(1.00, 0.00, -0.00, -1.00, 1421.6, 939.0)">о</text><text xml:space="preserve" font-family="Helvetica-Light" font-size="93.0" fill="#FEFFFF" transform="matrix(1.00, 0.00, -0.00, -1.00, 1473.3, 939.0)">й</text><text xml:space="preserve" font-family="Helvetica-Light" font-size="93.0" fill="#FEFFFF" transform="matrix(1.00, 0.00, -0.00, -1.00, 1523.9, 939.0)"> </text><g><clipPath id="clip-906"><path d="M 327.9 805.6 L 1592.1 805.6 L 1592.1 1029.4 L 327.9 1029.4 Z M 327.9 805.6 "></path></clipPath><g clip-path="url(#clip-906)"><text xml:space="preserve" font-family="Helvetica-Light" font-size="93.0" fill="#FEFFFF" transform="matrix(1.00, 0.00, -0.00, -1.00, 621.0, 827.0)">э</text><text xml:space="preserve" font-family="Helvetica-Light" font-size="93.0" fill="#FEFFFF" transform="matrix(1.00, 0.00, -0.00, -1.00, 669.2, 827.0)">к</text><text xml:space="preserve" font-family="Helvetica-Light" font-size="93.0" fill="#FEFFFF" transform="matrix(1.00, 0.00, -0.00, -1.00, 715.5, 827.0)">о</text><text xml:space="preserve" font-family="Helvetica-Light" font-size="93.0" fill="#FEFFFF" transform="matrix(1.00, 0.00, -0.00, -1.00, 767.2, 827.0)">н</text><text xml:space="preserve" font-family="Helvetica-Light" font-size="93.0" fill="#FEFFFF" transform="matrix(1.00, 0.00, -0.00, -1.00, 817.1, 827.0)">о</text><text xml:space="preserve" font-family="Helvetica-Light" font-size="93.0" fill="#FEFFFF" transform="matrix(1.00, 0.00, -0.00, -1.00, 868.8, 827.0)">м</text><text xml:space="preserve" font-family="Helvetica-Light" font-size="93.0" fill="#FEFFFF" transform="matrix(1.00, 0.00, -0.00, -1.00, 930.9, 827.0)">и</text><text xml:space="preserve" font-family="Helvetica-Light" font-size="93.0" fill="#FEFFFF" transform="matrix(1.00, 0.00, -0.00, -1.00, 981.5, 827.0)">к</text><text xml:space="preserve" font-family="Helvetica-Light" font-size="93.0" fill="#FEFFFF" transform="matrix(1.00, 0.00, -0.00, -1.00, 1027.8, 827.0)">и</text><text xml:space="preserve" font-family="Helvetica-Light" font-size="93.0" fill="#FEFFFF" transform="matrix(1.00, 0.00, -0.00, -1.00, 1078.4, 827.0)"> </text><text xml:space="preserve" font-family="Helvetica-Light" font-size="93.0" fill="#FEFFFF" transform="matrix(1.00, 0.00, -0.00, -1.00, 1104.2, 827.0)">(</text><text xml:space="preserve" font-family="Helvetica-Light" font-size="93.0" fill="#FEFFFF" transform="matrix(1.00, 0.00, -0.00, -1.00, 1135.2, 827.0)">Р</text><text xml:space="preserve" font-family="Helvetica-Light" font-size="93.0" fill="#FEFFFF" transform="matrix(1.00, 0.00, -0.00, -1.00, 1193.7, 827.0)">Ф</text><text xml:space="preserve" font-family="Helvetica-Light" font-size="93.0" fill="#FEFFFF" transform="matrix(1.00, 0.00, -0.00, -1.00, 1268.1, 827.0)">)</text></g></g><g><clipPath id="clip-907"><path d="M 290.0 749.0 L 1630.0 749.0 L 1630.0 137.0 L 290.0 137.0 Z M 289.8 748.5 "></path></clipPath><g clip-path="url(#clip-907)"><g><clipPath id="clip-908"><path d="M 291.9 216.4 C 292.0 260.7 291.5 395.1 290.9 514.9 L 289.8 732.8 L 294.5 733.9 C 314.4 738.7 369.0 739.8 634.3 740.6 C 1212.4 742.5 1621.3 740.3 1626.3 735.3 C 1627.1 734.4 1628.4 599.6 1629.0 435.5 L 1630.2 137.0 L 1290.3 138.0 C 637.4 139.0 299.2 138.7 295.5 137.3 C 292.1 135.9 291.9 140.5 291.9 216.4 M 722.3 759.4 C 718.7 763.7 718.5 778.1 722.0 781.5 C 724.0 783.5 724.1 782.7 722.7 777.7 C 721.5 773.6 721.8 768.8 723.5 763.7 C 726.5 755.1 726.3 754.5 722.3 759.4 M 1190.9 759.2 C 1192.6 761.2 1193.2 766.1 1192.6 772.8 C 1192.0 778.6 1191.8 783.3 1192.1 783.3 C 1192.4 783.3 1193.8 779.9 1195.2 775.8 C 1197.1 770.0 1197.1 766.9 1195.1 762.2 C 1193.7 758.8 1191.6 756.0 1190.4 756.0 C 1189.2 756.0 1189.5 757.4 1190.9 759.2 M 916.7 759.8 C 915.6 760.6 914.7 766.7 914.7 773.3 C 914.7 782.7 915.4 785.4 917.8 785.4 C 920.3 785.4 921.0 782.6 920.9 772.9 C 920.9 759.8 920.1 757.4 916.7 759.8 M 929.4 760.1 C 928.8 761.2 929.2 762.6 930.4 763.3 C 931.5 764.0 932.2 769.3 931.8 775.0 C 931.4 781.4 932.1 785.4 933.4 785.4 C 936.7 785.4 936.4 760.5 933.1 759.3 C 931.7 758.7 930.1 759.1 929.4 760.1 M 943.1 760.2 C 943.1 760.9 944.1 762.5 945.4 763.8 C 946.7 765.1 947.4 770.4 946.9 775.8 C 946.4 782.1 947.0 785.4 948.6 785.4 C 950.0 785.4 950.8 783.7 950.5 781.7 C 949.7 776.8 953.1 772.8 958.2 772.8 C 961.4 772.8 962.1 771.6 961.6 767.0 C 961.0 762.0 959.8 761.1 952.0 760.0 C 947.1 759.4 943.1 759.4 943.1 760.2 M 1061.0 760.0 L 1049.0 760.0 L 1049.0 772.7 L 1049.0 785.0 L 1059.6 785.0 L 1070.0 785.0 L 1069.0 774.7 C 1068.6 768.5 1069.7 763.0 1071.2 761.2 C 1072.7 759.5 1073.5 758.3 1073.0 758.5 C 1072.6 758.7 1067.0 759.2 1060.7 759.6 M 766.0 761.9 C 763.1 762.5 762.4 764.9 762.4 774.0 C 762.4 785.4 765.1 789.3 767.3 781.0 C 768.0 778.1 769.3 777.1 771.2 778.2 C 772.7 779.1 773.3 779.0 772.5 778.2 C 771.7 777.3 773.3 772.9 776.1 768.4 L 781.2 760.0 L 775.4 761.0 C 772.2 761.2 767.9 761.5 766.0 761.9 M 790.2 761.9 C 788.7 762.9 786.6 766.7 785.6 770.4 C 784.0 776.0 784.4 777.9 787.7 781.3 C 793.3 786.9 797.0 786.5 793.0 780.7 C 788.8 774.7 788.8 768.8 793.2 764.0 C 796.7 760.1 795.0 758.9 790.2 761.9 M 813.9 772.6 C 813.9 783.8 814.3 785.2 818.5 786.0 C 822.8 786.8 822.9 786.6 820.1 782.5 C 816.4 777.2 816.1 766.2 819.5 762.7 C 821.5 760.8 821.1 760.2 818.0 760.2 C 814.4 760.2 813.9 761.7 813.9 772.6 M 840.0 762.0 L 830.0 763.0 L 830.0 774.0 C 830.0 783.4 830.3 785.4 833.3 785.5 C 835.3 785.6 847.4 785.5 860.1 785.3 C 872.8 785.2 884.8 785.1 886.9 785.1 C 890.4 785.1 890.4 784.9 886.9 780.1 C 884.8 777.3 880.5 774.1 877.2 772.9 C 872.7 771.3 871.4 769.7 872.2 766.7 C 873.1 763.1 871.9 762.6 861.4 761.9 C 854.9 761.6 845.1 761.5 839.6 761.9 M 896.7 760.7 C 896.7 761.0 896.4 766.7 896.2 773.3 C 895.9 782.8 896.5 785.4 898.9 785.4 C 901.4 785.4 902.1 782.6 902.1 772.8 C 902.1 764.1 901.3 760.2 899.5 760.2 C 898.0 760.2 896.8 760.4 896.7 760.7 M 988.7 761.8 C 983.2 762.5 983.0 763.1 983.0 774.0 L 983.0 785.0 L 991.4 785.0 C 996.0 785.0 999.8 784.5 999.8 783.3 C 999.8 782.1 998.6 781.4 997.1 781.7 C 995.4 782.1 994.5 779.4 994.5 773.8 C 994.5 768.2 995.4 765.6 997.1 766.0 C 998.6 766.3 999.8 765.6 999.8 764.6 C 999.8 762.0 995.6 761.0 988.7 761.8 M 1023.2 762.6 C 1019.6 763.9 1018.7 766.0 1018.7 772.3 C 1018.7 782.1 1021.6 785.4 1030.2 785.4 C 1033.8 785.4 1037.9 784.3 1039.3 782.9 C 1042.0 780.1 1042.6 768.9 1040.2 765.2 C 1038.0 762.0 1028.7 760.6 1023.2 762.6 M 1081.0 773.0 L 1081.0 785.0 L 1088.5 785.0 C 1092.9 785.0 1096.4 784.5 1096.4 783.3 C 1096.4 782.1 1095.2 781.4 1093.8 781.7 C 1092.3 782.0 1090.9 779.7 1090.5 776.4 C 1090.1 773.2 1088.9 771.2 1087.8 771.8 C 1084.7 773.8 1083.1 766.7 1085.9 763.3 C 1088.1 760.7 1087.8 760.2 1084.6 760.2 C 1081.2 760.2 1080.6 761.9 1080.6 772.8 M 1093.2 762.3 C 1094.0 763.4 1095.0 764.4 1095.5 764.4 C 1096.0 764.4 1096.4 763.4 1096.4 762.3 C 1096.4 761.1 1095.4 760.2 1094.2 760.2 C 1093.0 760.2 1092.5 761.1 1093.2 762.3 M 1122.6 761.9 C 1120.3 763.5 1119.6 785.4 1121.9 785.4 C 1123.0 785.4 1125.6 762.9 1124.8 760.8 C 1124.7 760.6 1123.7 761.1 1122.6 761.9 M 1134.2 763.1 C 1135.3 764.3 1136.0 769.8 1136.0 775.3 L 1136.0 785.0 L 1144.0 785.0 C 1151.2 785.0 1151.5 785.2 1148.3 781.7 C 1144.1 777.1 1144.2 775.2 1149.1 768.3 C 1151.3 765.2 1153.1 762.3 1153.1 761.8 C 1153.1 761.3 1148.4 760.9 1142.6 760.9 C 1135.3 760.9 1132.7 761.6 1134.2 763.1 M 1160.5 773.2 C 1160.5 780.3 1161.4 785.4 1162.7 785.4 C 1163.9 785.4 1164.5 782.4 1164.0 778.3 C 1163.6 774.4 1164.2 770.6 1165.5 769.8 C 1168.0 768.2 1176.6 780.9 1174.9 783.7 C 1174.4 784.6 1175.6 785.4 1177.7 785.4 C 1180.9 785.4 1181.0 783.6 1181.0 772.9 L 1181.0 760.0 L 1171.0 761.0 L 1160.0 761.0 L 1160.0 773.0 M 732.0 764.4 C 731.2 765.6 732.1 765.9 733.9 765.2 C 737.6 763.8 738.2 762.3 735.2 762.3 C 734.1 762.3 732.7 763.2 732.0 764.4 M 745.7 765.6 C 749.9 770.6 750.2 779.8 746.2 782.8 C 744.3 784.2 743.7 785.4 745.0 785.4 C 748.8 785.4 754.0 779.2 754.0 774.6 C 754.0 768.5 750.1 762.3 746.3 762.3 C 743.5 762.3 743.4 762.8 745.7 765.6 M 967.2 774.6 C 967.2 783.6 967.9 786.7 969.8 786.0 C 971.5 785.3 972.5 780.7 972.5 773.6 C 972.5 766.0 971.6 762.3 969.8 762.3 C 968.0 762.3 967.2 766.2 967.2 774.6 M 1103.8 773.8 C 1103.8 781.7 1104.6 785.4 1106.4 785.4 C 1107.8 785.4 1109.0 783.6 1109.0 781.3 C 1109.0 779.1 1110.1 776.6 1111.4 775.8 C 1113.0 774.8 1112.6 773.7 1110.2 772.3 C 1108.0 771.1 1107.2 768.9 1108.0 766.3 C 1108.8 763.7 1108.3 762.3 1106.5 762.3 C 1104.6 762.3 1103.8 765.7 1103.8 773.8 M 739.3 774.0 C 739.3 775.8 740.2 776.6 741.4 775.9 C 742.6 775.2 743.0 773.7 742.3 772.6 C 740.5 769.7 739.3 770.3 739.3 774.0 M 733.0 783.3 C 733.0 784.5 734.0 785.4 735.2 785.4 C 736.4 785.4 736.9 784.5 736.1 783.3 C 735.4 782.1 734.4 781.2 733.9 781.2 C 733.4 781.2 733.0 782.1 733.0 783.3 M 801.5 782.9 C 800.9 783.9 801.8 784.7 803.5 784.7 C 805.1 784.7 806.5 783.9 806.5 782.9 C 806.5 782.0 805.6 781.2 804.5 781.2 C 803.4 781.2 802.1 782.0 801.5 782.9 M 926.1 798.6 C 926.1 798.8 925.8 805.0 925.6 812.2 C 925.3 823.4 925.7 825.3 928.8 825.3 C 931.7 825.3 932.2 824.1 931.2 819.3 C 930.6 815.9 931.0 812.6 932.2 811.8 C 935.0 810.1 941.8 820.1 939.9 823.1 C 939.0 824.6 942.4 825.2 949.9 824.9 C 959.4 824.4 961.2 823.8 960.4 820.9 C 959.9 819.0 960.6 816.7 961.9 815.9 C 963.6 814.8 963.6 813.6 961.7 811.3 C 959.7 808.9 959.6 807.2 961.4 804.4 C 964.6 799.3 964.0 798.9 952.0 799.8 C 942.1 800.4 941.8 800.7 942.6 806.3 C 943.1 809.6 942.5 812.8 941.3 813.5 C 938.9 815.0 930.0 804.7 931.5 802.2 C 932.1 801.3 931.1 800.0 929.4 799.3 C 927.7 798.7 926.2 798.3 926.1 798.6 M 1061.0 800.1 C 1060.3 800.7 1060.0 806.5 1060.0 813.0 L 1060.0 825.0 L 1071.5 825.0 L 1083.4 825.0 L 1081.6 818.8 C 1080.7 815.4 1080.7 810.0 1081.6 806.6 L 1083.4 800.0 L 1072.9 800.0 C 1067.1 799.6 1061.8 799.5 1061.0 800.1 M 1326.9 805.6 C 1327.5 809.2 1327.0 812.8 1325.8 813.5 C 1324.6 814.2 1324.2 816.7 1324.8 819.0 C 1325.7 822.8 1327.7 823.2 1344.5 823.4 C 1378.7 823.9 1377.9 823.9 1377.9 820.2 C 1377.9 814.7 1382.0 814.5 1384.4 819.7 C 1387.8 827.1 1400.4 827.2 1403.2 819.8 C 1404.2 817.1 1406.1 814.8 1407.2 814.8 C 1408.4 814.8 1409.4 813.9 1409.4 812.7 C 1409.4 811.6 1408.2 810.8 1406.8 811.1 C 1405.1 811.5 1403.8 809.4 1404.0 805.4 L 1405.0 799.0 L 1365.2 799.0 L 1325.8 799.0 L 1326.9 805.6 M 500.9 812.7 C 500.9 822.5 501.6 825.3 504.0 825.3 C 506.5 825.3 507.2 822.5 507.2 812.7 C 507.2 802.9 506.5 800.1 504.0 800.1 C 501.6 800.1 500.9 802.9 500.9 812.7 M 517.7 812.7 C 517.7 823.8 518.2 825.3 521.8 825.3 C 525.0 825.3 525.3 824.7 523.3 822.8 C 520.2 819.7 520.1 809.7 523.0 804.2 C 524.8 800.9 524.5 800.1 521.4 800.1 C 518.2 800.1 517.7 802.0 517.7 812.7 M 532.0 813.0 L 532.0 825.0 L 540.2 825.0 C 545.7 825.0 548.6 824.1 550.1 821.3 C 551.9 817.9 551.1 816.6 544.7 812.8 C 539.1 809.5 537.4 807.3 538.3 804.2 C 539.0 801.4 538.3 800.1 535.9 800.1 C 533.0 800.1 532.4 802.4 532.4 812.7 M 561.3 801.6 C 554.9 802.8 551.8 814.0 556.1 820.6 C 560.4 827.3 572.1 827.1 576.5 820.3 C 579.1 816.4 579.3 814.1 577.5 809.4 C 576.2 806.0 574.1 802.6 572.7 801.8 C 570.1 800.1 569.0 800.1 561.3 801.6 M 588.9 805.1 C 581.7 812.5 581.6 814.1 587.3 819.8 C 593.7 826.1 598.7 826.7 606.0 821.9 C 612.0 818.0 613.4 806.4 607.9 806.4 C 606.2 806.4 604.2 805.0 603.5 803.3 C 601.8 798.8 594.1 799.7 588.9 805.1 M 618.5 812.7 C 618.5 823.5 619.1 825.3 622.3 825.3 C 624.4 825.3 625.6 824.5 625.0 823.4 C 624.3 822.4 625.2 820.4 626.9 819.0 C 630.7 815.8 631.1 810.4 627.4 811.1 C 625.8 811.5 624.8 809.4 624.9 805.9 C 624.9 802.0 623.9 800.1 621.7 800.1 C 619.2 800.1 618.5 802.8 618.5 812.7 M 633.2 802.2 C 633.9 803.4 634.9 804.3 635.4 804.3 C 635.9 804.3 636.4 803.4 636.4 802.2 C 636.4 801.0 635.4 800.1 634.1 800.1 C 632.9 800.1 632.5 801.0 633.2 802.2 M 641.9 805.9 C 639.3 810.8 639.3 812.4 641.9 817.4 C 645.8 825.1 649.2 824.9 646.3 817.1 C 644.4 812.2 644.7 810.0 647.6 805.6 C 650.6 800.9 650.7 800.1 648.0 800.1 C 646.3 800.1 643.5 802.7 641.9 805.9 M 670.4 802.6 C 665.1 808.0 668.5 823.2 675.0 823.2 C 676.2 823.2 676.0 822.1 674.6 820.7 C 673.2 819.3 672.1 815.2 672.1 811.7 C 672.1 808.1 673.2 804.0 674.6 802.6 C 676.0 801.2 676.2 800.1 675.0 800.1 C 673.9 800.1 671.8 801.2 670.4 802.6 M 682.6 800.9 C 682.6 801.3 684.2 803.0 686.2 804.6 C 689.6 807.2 689.7 807.1 687.0 803.8 C 684.3 800.3 682.6 799.2 682.6 800.9 M 696.2 802.2 C 694.1 805.6 696.0 825.3 698.5 825.3 C 699.8 825.3 700.4 822.7 699.9 819.3 C 699.4 815.9 699.9 812.6 701.1 811.9 C 703.6 810.4 712.6 821.9 710.5 824.0 C 709.8 824.7 711.1 825.3 713.5 825.3 C 717.3 825.3 717.7 824.5 716.3 818.5 C 715.5 814.7 714.4 811.2 714.1 810.6 C 713.7 810.0 714.5 807.4 715.9 804.8 C 718.1 800.7 717.9 800.1 714.5 800.1 C 711.4 800.1 710.8 801.3 711.5 806.2 C 712.0 809.5 711.4 812.8 710.2 813.5 C 707.8 815.0 698.8 803.5 700.8 801.4 C 701.6 800.7 701.1 800.1 699.9 800.1 C 698.6 800.1 696.9 801.0 696.2 802.2 M 725.6 812.7 C 725.6 822.9 726.3 825.3 729.0 825.3 C 731.5 825.3 732.1 823.9 731.4 820.0 C 730.8 817.2 731.4 813.6 732.6 812.1 C 734.0 810.5 734.1 808.2 733.0 806.4 C 732.0 804.8 731.6 802.7 732.2 801.8 C 732.8 800.9 731.5 800.1 729.4 800.1 C 726.2 800.1 725.6 802.0 725.6 812.7 M 740.6 802.7 C 743.7 807.0 742.8 815.9 739.5 815.2 C 737.0 814.7 737.0 815.2 739.1 817.7 C 740.6 819.5 741.1 821.9 740.4 823.1 C 739.6 824.3 740.7 825.3 742.8 825.3 C 746.1 825.3 746.6 823.5 746.6 812.7 C 746.6 801.8 746.1 800.1 742.7 800.1 C 740.0 800.1 739.3 800.9 740.6 802.7 M 769.7 812.7 C 769.7 824.8 770.0 825.3 775.0 825.3 C 783.2 825.2 785.6 822.5 786.6 812.6 C 787.7 802.4 785.8 800.0 776.0 800.0 L 770.0 800.0 L 770.0 813.0 M 807.6 812.6 C 807.6 824.7 807.7 825.1 812.8 824.5 C 815.7 824.2 823.4 824.5 830.0 825.2 C 836.6 826.0 844.0 825.8 846.4 824.9 C 852.7 822.6 851.3 814.3 844.3 812.7 C 840.5 811.7 839.1 810.0 839.1 806.2 C 839.2 801.6 838.2 801.0 830.7 800.8 C 824.7 800.7 821.5 801.7 819.5 804.6 C 816.5 809.0 811.8 807.7 813.7 803.0 C 814.3 801.2 813.4 800.1 811.2 800.1 C 808.2 800.1 807.6 802.2 807.6 812.6 M 858.0 812.7 C 858.0 823.2 858.6 825.3 861.6 825.3 C 864.6 825.3 864.9 824.4 863.3 820.2 C 861.9 816.5 862.2 814.5 864.3 812.6 C 866.5 810.9 866.8 809.1 865.4 806.5 C 864.3 804.4 864.0 802.2 864.7 801.4 C 865.4 800.7 864.2 800.1 862.0 800.1 C 858.5 800.1 858.0 801.7 858.0 812.7 M 873.7 805.2 C 875.1 808.9 874.8 811.0 872.5 812.8 C 870.3 814.7 870.1 816.1 871.8 818.1 C 873.1 819.7 873.5 821.9 872.7 823.1 C 872.0 824.3 873.1 825.3 875.2 825.3 C 878.4 825.3 879.0 823.5 879.0 812.7 C 879.0 802.2 878.4 800.1 875.4 800.1 C 872.4 800.1 872.1 801.0 873.7 805.2 M 896.2 808.7 C 893.9 814.4 892.0 816.8 890.3 815.7 C 888.6 814.6 888.1 815.2 889.0 817.4 C 889.6 819.1 889.1 821.7 887.9 823.0 C 886.1 824.7 886.6 825.3 889.9 825.3 C 893.1 825.3 895.2 822.9 897.7 816.8 C 899.7 811.7 902.0 808.9 903.4 809.7 C 905.2 810.8 902.6 803.9 900.0 800.6 C 899.8 800.3 898.1 803.9 896.2 808.7 M 910.5 806.9 C 910.5 811.4 909.6 813.6 907.8 813.2 C 905.8 812.8 905.9 814.3 908.4 819.0 C 913.7 829.3 916.8 826.9 916.8 812.7 C 916.8 802.9 916.1 800.1 913.6 800.1 C 911.4 800.1 910.5 802.2 910.5 806.9 M 971.4 812.7 C 971.4 822.5 972.1 825.3 974.6 825.3 C 977.0 825.3 977.7 822.5 977.7 812.7 C 977.7 802.9 977.0 800.1 974.6 800.1 C 972.1 800.1 971.4 802.9 971.4 812.7 M 981.9 802.2 C 982.7 803.4 984.1 803.8 985.2 803.2 C 988.1 801.4 987.6 800.1 983.9 800.1 C 982.1 800.1 981.2 801.1 981.9 802.2 M 996.5 802.0 C 998.1 804.7 991.9 809.2 988.4 807.8 C 985.8 806.8 985.9 807.8 988.6 814.4 C 990.4 818.7 992.2 822.5 992.6 823.0 C 993.0 823.4 995.3 819.3 997.6 813.8 C 1001.7 804.3 1002.3 803.9 1008.5 805.1 C 1014.1 806.2 1014.6 806.0 1012.4 803.3 C 1009.6 800.0 994.5 798.7 996.5 802.0 M 1019.8 802.3 C 1024.9 810.5 1021.6 824.8 1015.3 822.3 C 1013.7 821.8 1011.9 822.2 1011.3 823.3 C 1010.6 824.4 1013.5 825.0 1018.0 825.0 L 1026.0 825.0 L 1026.0 812.7 C 1026.0 801.9 1025.5 800.1 1022.2 800.1 C 1020.1 800.1 1019.0 801.1 1019.8 802.3 M 1036.0 807.4 C 1037.7 812.8 1037.6 816.2 1035.9 820.0 C 1033.8 824.6 1034.0 825.3 1037.2 825.3 C 1039.9 825.3 1040.9 823.7 1040.8 819.5 C 1040.8 815.2 1041.8 813.6 1045.3 813.1 C 1051.2 812.3 1054.8 807.9 1053.1 803.5 C 1052.2 801.1 1049.2 800.0 1042.8 800.0 L 1033.8 800.0 L 1036.0 807.4 M 1090.0 805.5 C 1086.1 815.8 1089.3 821.7 1099.9 823.8 C 1107.9 825.4 1111.8 821.7 1111.8 812.3 C 1111.8 800.2 1094.2 794.7 1090.0 805.5 M 1120.0 807.4 C 1121.7 812.8 1121.6 816.2 1119.9 820.0 C 1117.9 824.3 1118.1 825.3 1120.5 825.3 C 1122.1 825.3 1124.4 826.8 1125.4 828.7 C 1126.8 831.2 1127.8 831.4 1128.9 829.7 C 1130.0 827.8 1131.2 827.9 1133.7 829.9 C 1136.3 832.0 1136.7 832.0 1135.5 830.0 C 1134.5 828.4 1135.4 826.8 1137.8 825.8 C 1140.8 824.6 1142.0 821.9 1142.0 812.2 L 1142.0 800.0 L 1129.7 800.0 L 1117.8 800.0 L 1120.0 807.4 M 1162.6 802.1 C 1162.0 803.2 1163.3 805.1 1165.7 806.4 C 1168.0 807.6 1169.9 810.0 1169.9 811.7 C 1169.9 813.4 1171.2 814.2 1172.9 813.5 C 1177.0 812.0 1179.2 816.5 1176.1 820.2 C 1174.8 821.8 1174.5 823.2 1175.5 823.2 C 1183.0 823.2 1185.4 806.0 1178.5 802.3 C 1173.4 799.6 1164.3 799.5 1162.6 802.1 M 1189.9 812.7 C 1189.9 823.5 1190.4 825.1 1193.4 824.1 C 1195.3 823.5 1197.5 824.0 1198.2 825.2 C 1199.1 826.7 1200.9 826.7 1203.4 825.4 C 1205.5 824.3 1207.6 823.6 1208.0 823.8 C 1208.5 824.1 1207.2 823.0 1205.1 821.4 C 1200.3 817.6 1200.5 813.7 1205.8 806.2 C 1209.0 801.6 1209.4 800.1 1207.2 800.1 C 1205.5 800.1 1203.1 802.5 1201.8 805.5 C 1199.0 811.5 1194.2 810.3 1195.8 804.1 C 1196.5 801.4 1195.7 800.1 1193.4 800.1 C 1190.5 800.1 1189.9 802.4 1189.9 812.7 M 1215.7 805.4 C 1210.4 817.1 1218.8 825.6 1232.1 822.3 C 1236.3 821.2 1237.1 819.7 1237.1 813.1 C 1237.1 803.3 1234.2 800.1 1225.1 800.1 C 1219.7 800.1 1217.6 801.3 1215.7 805.4 M 1247.3 809.6 C 1247.8 815.1 1247.0 820.4 1245.5 822.2 C 1243.4 824.8 1243.7 825.3 1247.1 825.3 C 1250.4 825.3 1251.1 824.2 1250.3 820.1 C 1249.6 816.5 1250.4 814.4 1252.7 813.5 C 1257.3 811.8 1262.9 816.7 1261.6 821.5 C 1261.0 824.0 1261.8 825.3 1264.1 825.3 C 1267.0 825.3 1268.0 823.0 1268.0 812.7 L 1268.0 800.0 L 1257.1 800.0 L 1247.0 800.0 L 1247.0 810.0 M 1275.8 805.4 C 1268.8 816.0 1280.5 829.3 1291.5 823.3 C 1297.0 820.4 1298.9 813.2 1296.1 805.8 C 1293.1 797.9 1280.9 797.6 1275.8 805.4 M 1313.1 807.6 C 1311.7 810.5 1309.7 812.4 1308.6 811.7 C 1307.4 810.9 1306.5 812.6 1306.5 815.3 C 1306.5 818.0 1305.3 821.4 1303.9 822.8 C 1302.0 824.7 1302.6 825.3 1306.9 825.3 C 1311.4 825.3 1312.7 824.1 1313.8 818.9 C 1314.6 815.3 1316.5 812.0 1318.0 811.4 C 1320.7 810.3 1319.9 802.2 1317.1 802.2 C 1316.2 802.2 1314.4 804.6 1313.1 807.6 M 658.4 821.1 C 657.7 822.3 658.1 823.2 659.3 823.2 C 660.6 823.2 661.6 822.3 661.6 821.1 C 661.6 820.0 661.1 819.0 660.6 819.0 C 660.1 819.0 659.1 820.0 658.4 821.1 M 683.7 822.2 C 681.5 823.9 680.7 825.3 681.9 825.3 C 683.1 825.3 685.3 823.9 686.8 822.2 C 690.0 818.2 689.0 818.2 683.7 822.2 M 1161.5 821.1 C 1161.5 822.3 1162.5 823.2 1163.7 823.2 C 1165.0 823.2 1165.4 822.3 1164.7 821.1 C 1164.0 820.0 1163.0 819.0 1162.4 819.0 C 1161.9 819.0 1161.5 820.0 1161.5 821.1 M 633.2 823.2 C 632.5 824.4 632.9 825.3 634.1 825.3 C 635.4 825.3 636.4 824.4 636.4 823.2 C 636.4 822.1 635.9 821.1 635.4 821.1 C 634.9 821.1 633.9 822.1 633.2 823.2 M 1550.3 871.2 C 1548.4 874.8 1548.6 876.9 1551.2 881.5 C 1554.0 886.4 1554.3 886.5 1553.2 882.5 C 1552.5 879.8 1552.9 876.5 1554.0 875.0 C 1555.3 873.6 1555.4 871.2 1554.4 869.6 C 1553.1 867.4 1552.2 867.7 1550.3 871.2 M 1617.4 876.8 C 1624.3 883.9 1628.6 886.9 1624.0 881.4 C 1622.8 879.9 1622.3 876.6 1622.9 874.0 C 1624.0 870.0 1623.3 869.0 1617.2 869.0 L 1610.2 869.0 L 1617.4 876.8 M 1560.6 876.4 C 1560.6 882.7 1564.7 888.3 1569.4 888.3 C 1572.9 888.3 1573.5 887.4 1572.5 883.6 C 1571.8 881.0 1571.2 877.3 1571.2 875.4 C 1571.2 873.1 1569.5 872.1 1565.9 872.3 C 1562.3 872.5 1560.6 873.8 1560.6 876.4 M 1597.4 873.6 C 1598.1 874.8 1599.1 875.7 1599.6 875.7 C 1600.1 875.7 1600.6 874.8 1600.6 873.6 C 1600.6 872.5 1599.6 871.5 1598.3 871.5 C 1597.1 871.5 1596.7 872.5 1597.4 873.6 M 1451.2 877.3 C 1452.2 879.3 1454.1 883.3 1455.4 886.2 C 1457.7 891.3 1457.7 891.2 1456.4 885.2 C 1455.7 881.7 1455.0 877.7 1455.0 876.3 C 1454.9 874.8 1453.6 873.6 1452.1 873.6 C 1450.1 873.6 1449.8 874.7 1451.2 877.3 M 1468.2 879.1 C 1468.2 884.0 1475.9 891.1 1479.0 889.2 C 1480.0 888.6 1480.6 884.9 1480.3 881.0 C 1479.8 874.8 1479.1 874.0 1474.0 874.1 C 1469.4 874.2 1468.2 875.3 1468.2 879.1 M 1487.1 876.6 C 1487.1 878.3 1488.0 882.0 1489.1 884.9 C 1492.0 892.5 1499.1 890.1 1500.1 881.2 C 1500.8 874.9 1500.4 874.4 1494.0 874.0 C 1489.1 873.6 1487.1 874.4 1487.1 876.6 M 1506.1 877.7 C 1507.1 879.5 1508.3 882.6 1509.0 884.7 C 1509.6 886.7 1511.7 888.3 1513.6 888.3 C 1516.1 888.3 1516.7 887.1 1515.8 883.6 C 1515.1 881.0 1514.5 877.7 1514.5 876.3 C 1514.4 874.8 1512.2 873.9 1509.4 874.1 C 1505.7 874.4 1504.8 875.3 1506.1 877.7 M 1523.0 879.4 C 1523.1 884.5 1523.3 884.7 1524.9 881.0 C 1527.4 875.2 1527.4 873.6 1524.9 873.6 C 1523.8 873.6 1522.9 876.2 1523.0 879.4 M 1529.1 874.4 C 1529.1 874.9 1530.6 878.4 1532.4 882.3 C 1534.8 887.5 1535.4 887.9 1534.5 884.1 C 1533.9 881.2 1533.4 877.7 1533.4 876.3 C 1533.3 874.8 1532.4 873.6 1531.2 873.6 C 1530.1 873.6 1529.1 874.0 1529.1 874.4 M 1541.8 878.4 C 1541.8 882.2 1542.2 882.5 1543.8 879.9 C 1546.5 875.9 1546.5 873.6 1543.8 873.6 C 1542.7 873.6 1541.7 875.8 1541.8 878.4 M 1603.3 887.8 C 1603.5 891.6 1604.4 894.6 1605.3 894.6 C 1607.3 894.6 1607.1 890.6 1604.8 885.2 C 1603.3 881.8 1603.1 882.3 1603.3 887.8 M 1624.6 888.2 C 1625.3 889.3 1624.2 891.2 1622.1 892.5 C 1618.7 894.6 1618.7 894.7 1622.6 894.2 C 1627.0 893.5 1629.9 886.2 1625.8 886.2 C 1624.5 886.2 1624.0 887.1 1624.6 888.2 M 1456.9 895.7 C 1456.2 897.6 1456.9 898.8 1458.8 898.8 C 1460.6 898.8 1461.3 897.6 1460.6 895.7 C 1459.9 893.9 1459.1 892.5 1458.8 892.5 C 1458.4 892.5 1457.6 893.9 1456.9 895.7 M 1497.1 896.0 C 1498.5 896.6 1500.9 896.6 1502.3 896.0 C 1503.8 895.4 1502.6 895.0 1499.7 895.0 C 1496.8 895.0 1495.7 895.4 1497.1 896.0 "></path></clipPath><g clip-path="url(#clip-908)"><image xlink:href="998023D7DEA08BC8D90850253E8837B9.png" width="679.00" height="397.00" transform="matrix(2.10, 0.00, -0.00, -2.10, 248.0, 953.0)"></image></g></g></g></g><image xlink:href="07883BB5A9CA9A88DE62CAEF7CCD8933.png" width="5586.00" height="505.00" transform="matrix(0.24, 0.00, -0.00, -0.24, 289.8, 137.1)"></image></g></svg>