<?xml version="1.0" encoding="UTF-8"?><svg xmlns="http://www.w3.org/2000/svg" xmlns:xlink="http://www.w3.org/1999/xlink" clip-rule="evenodd" stroke-miterlimit="4.00" viewBox="0 0 1920 1080"><desc>SVG generated by Keynote</desc><defs></defs><g transform="matrix(1.00, 0.00, -0.00, -1.00, 0.0, 1080.0)"><g><clipPath id="clip-844"><path d="M 0.0 0.0 L 1920.0 0.0 L 1920.0 1080.0 L 0.0 1080.0 Z M 0.0 0.0 "></path></clipPath><g clip-path="url(#clip-844)"><image xlink:href="../../06DBE9C8-52A0-453A-A7BF-EBF58CF01F35/assets/54F498DCE8E9310272AD5A0F2668F575.jpeg" width="1365.00" height="1023.00" transform="matrix(1.41, 0.00, -0.00, -1.06, 0.0, 1080.0)"></image></g></g><text xml:space="preserve" font-family="Helvetica-Light" font-size="84.0" fill="#FEFFFF" transform="matrix(1.00, 0.00, -0.00, -1.00, 81.0, 773.0)">Н</text><text xml:space="preserve" font-family="Helvetica-Light" font-size="84.0" fill="#FEFFFF" transform="matrix(1.00, 0.00, -0.00, -1.00, 140.1, 773.0)">е</text><text xml:space="preserve" font-family="Helvetica-Light" font-size="84.0" fill="#FEFFFF" transform="matrix(1.00, 0.00, -0.00, -1.00, 183.7, 773.0)">н</text><text xml:space="preserve" font-family="Helvetica-Light" font-size="84.0" fill="#FEFFFF" transform="matrix(1.00, 0.00, -0.00, -1.00, 228.8, 773.0)">а</text><text xml:space="preserve" font-family="Helvetica-Light" font-size="84.0" fill="#FEFFFF" transform="matrix(1.00, 0.00, -0.00, -1.00, 272.4, 773.0)">б</text><text xml:space="preserve" font-family="Helvetica-Light" font-size="84.0" fill="#FEFFFF" transform="matrix(1.00, 0.00, -0.00, -1.00, 319.1, 773.0)">л</text><text xml:space="preserve" font-family="Helvetica-Light" font-size="84.0" fill="#FEFFFF" transform="matrix(1.00, 0.00, -0.00, -1.00, 366.6, 773.0)">ю</text><text xml:space="preserve" font-family="Helvetica-Light" font-size="84.0" fill="#FEFFFF" transform="matrix(1.00, 0.00, -0.00, -1.00, 429.2, 773.0)">д</text><text xml:space="preserve" font-family="Helvetica-Light" font-size="84.0" fill="#FEFFFF" transform="matrix(1.00, 0.00, -0.00, -1.00, 477.1, 773.0)">а</text><text xml:space="preserve" font-family="Helvetica-Light" font-size="84.0" fill="#FEFFFF" transform="matrix(1.00, 0.00, -0.00, -1.00, 520.7, 773.0)">е</text><text xml:space="preserve" font-family="Helvetica-Light" font-size="84.0" fill="#FEFFFF" transform="matrix(1.00, 0.00, -0.00, -1.00, 564.3, 773.0)">м</text><text xml:space="preserve" font-family="Helvetica-Light" font-size="84.0" fill="#FEFFFF" transform="matrix(1.00, 0.00, -0.00, -1.00, 620.4, 773.0)">а</text><text xml:space="preserve" font-family="Helvetica-Light" font-size="84.0" fill="#FEFFFF" transform="matrix(1.00, 0.00, -0.00, -1.00, 664.0, 773.0)">я</text><text xml:space="preserve" font-family="Helvetica-Light" font-size="84.0" fill="#FEFFFF" transform="matrix(1.00, 0.00, -0.00, -1.00, 706.5, 773.0)"> </text><text xml:space="preserve" font-family="Helvetica-Light" font-size="84.0" fill="#FEFFFF" transform="matrix(1.00, 0.00, -0.00, -1.00, 729.8, 773.0)">э</text><text xml:space="preserve" font-family="Helvetica-Light" font-size="84.0" fill="#FEFFFF" transform="matrix(1.00, 0.00, -0.00, -1.00, 773.4, 773.0)">к</text><text xml:space="preserve" font-family="Helvetica-Light" font-size="84.0" fill="#FEFFFF" transform="matrix(1.00, 0.00, -0.00, -1.00, 815.2, 773.0)">о</text><text xml:space="preserve" font-family="Helvetica-Light" font-size="84.0" fill="#FEFFFF" transform="matrix(1.00, 0.00, -0.00, -1.00, 861.9, 773.0)">н</text><text xml:space="preserve" font-family="Helvetica-Light" font-size="84.0" fill="#FEFFFF" transform="matrix(1.00, 0.00, -0.00, -1.00, 907.1, 773.0)">о</text><text xml:space="preserve" font-family="Helvetica-Light" font-size="84.0" fill="#FEFFFF" transform="matrix(1.00, 0.00, -0.00, -1.00, 953.8, 773.0)">м</text><text xml:space="preserve" font-family="Helvetica-Light" font-size="84.0" fill="#FEFFFF" transform="matrix(1.00, 0.00, -0.00, -1.00, 1009.9, 773.0)">и</text><text xml:space="preserve" font-family="Helvetica-Light" font-size="84.0" fill="#FEFFFF" transform="matrix(1.00, 0.00, -0.00, -1.00, 1055.6, 773.0)">к</text><text xml:space="preserve" font-family="Helvetica-Light" font-size="84.0" fill="#FEFFFF" transform="matrix(1.00, 0.00, -0.00, -1.00, 1097.4, 773.0)">а</text><text xml:space="preserve" font-family="Helvetica-Light" font-size="84.0" fill="#FEFFFF" transform="matrix(1.00, 0.00, -0.00, -1.00, 1141.0, 773.0)"> </text><g><clipPath id="clip-845"><path d="M 20.2 653.0 L 1201.4 653.0 L 1201.4 1070.8 L 20.2 1070.8 Z M 20.2 653.0 "></path></clipPath><g clip-path="url(#clip-845)"><text xml:space="preserve" font-family="Helvetica-Light" font-size="84.0" fill="#FEFFFF" transform="matrix(1.00, 0.00, -0.00, -1.00, 494.0, 672.0)">(</text><text xml:space="preserve" font-family="Helvetica-Light" font-size="84.0" fill="#FEFFFF" transform="matrix(1.00, 0.00, -0.00, -1.00, 522.0, 672.0)">Н</text><text xml:space="preserve" font-family="Helvetica-Light" font-size="84.0" fill="#FEFFFF" transform="matrix(1.00, 0.00, -0.00, -1.00, 581.1, 672.0)">Н</text><text xml:space="preserve" font-family="Helvetica-Light" font-size="84.0" fill="#FEFFFF" transform="matrix(1.00, 0.00, -0.00, -1.00, 640.2, 672.0)">Э</text><text xml:space="preserve" font-family="Helvetica-Light" font-size="84.0" fill="#FEFFFF" transform="matrix(1.00, 0.00, -0.00, -1.00, 698.6, 672.0)">)</text></g></g><image xlink:href="979AA838024312D7F37065DE37B49561.png" width="13.00" height="12.00" transform="matrix(1.00, 0.00, -0.00, -1.00, 200.0, 494.0)"></image><text xml:space="preserve" font-family="LucidaGrande" font-size="28.6" fill="#00CCFF" transform="matrix(1.00, 0.00, -0.00, -1.00, 197.7, 480.1)">■</text><image xlink:href="E6CA216681A2ADB78E4A2E6C33EE8723.png" width="730.00" height="43.00" transform="matrix(1.00, 0.00, -0.00, -1.00, 238.0, 507.0)"></image><text xml:space="preserve" font-family="Tahoma" font-size="44.0" fill="#FFFFFF" transform="matrix(1.00, 0.00, -0.00, -1.00, 235.0, 474.0)">Н</text><text xml:space="preserve" font-family="Tahoma" font-size="44.0" fill="#FFFFFF" transform="matrix(1.00, 0.00, -0.00, -1.00, 264.7, 474.0)">Н</text><text xml:space="preserve" font-family="Tahoma" font-size="44.0" fill="#FFFFFF" transform="matrix(1.00, 0.00, -0.00, -1.00, 294.5, 474.0)">Э</text><text xml:space="preserve" font-family="Tahoma" font-size="44.0" fill="#FFFFFF" transform="matrix(1.00, 0.00, -0.00, -1.00, 320.8, 474.0)"> </text><text xml:space="preserve" font-family="Tahoma" font-size="44.0" fill="#FFFFFF" transform="matrix(1.00, 0.00, -0.00, -1.00, 334.5, 474.0)">-</text><text xml:space="preserve" font-family="Tahoma" font-size="44.0" fill="#FFFFFF" transform="matrix(1.00, 0.00, -0.00, -1.00, 350.5, 474.0)"> </text><text xml:space="preserve" font-family="Tahoma" font-size="44.0" fill="#FFFFFF" transform="matrix(1.00, 0.00, -0.00, -1.00, 364.3, 474.0)">э</text><text xml:space="preserve" font-family="Tahoma" font-size="44.0" fill="#FFFFFF" transform="matrix(1.00, 0.00, -0.00, -1.00, 385.0, 474.0)">к</text><text xml:space="preserve" font-family="Tahoma" font-size="44.0" fill="#FFFFFF" transform="matrix(1.00, 0.00, -0.00, -1.00, 406.9, 474.0)">о</text><text xml:space="preserve" font-family="Tahoma" font-size="44.0" fill="#FFFFFF" transform="matrix(1.00, 0.00, -0.00, -1.00, 430.8, 474.0)">н</text><text xml:space="preserve" font-family="Tahoma" font-size="44.0" fill="#FFFFFF" transform="matrix(1.00, 0.00, -0.00, -1.00, 455.6, 474.0)">о</text><text xml:space="preserve" font-family="Tahoma" font-size="44.0" fill="#FFFFFF" transform="matrix(1.00, 0.00, -0.00, -1.00, 479.5, 474.0)">м</text><text xml:space="preserve" font-family="Tahoma" font-size="44.0" fill="#FFFFFF" transform="matrix(1.00, 0.00, -0.00, -1.00, 507.6, 474.0)">и</text><text xml:space="preserve" font-family="Tahoma" font-size="44.0" fill="#FFFFFF" transform="matrix(1.00, 0.00, -0.00, -1.00, 532.4, 474.0)">ч</text><text xml:space="preserve" font-family="Tahoma" font-size="44.0" fill="#FFFFFF" transform="matrix(1.00, 0.00, -0.00, -1.00, 556.3, 474.0)">е</text><text xml:space="preserve" font-family="Tahoma" font-size="44.0" fill="#FFFFFF" transform="matrix(1.00, 0.00, -0.00, -1.00, 579.5, 474.0)">с</text><text xml:space="preserve" font-family="Tahoma" font-size="44.0" fill="#FFFFFF" transform="matrix(1.00, 0.00, -0.00, -1.00, 599.8, 474.0)">к</text><text xml:space="preserve" font-family="Tahoma" font-size="44.0" fill="#FFFFFF" transform="matrix(1.00, 0.00, -0.00, -1.00, 621.7, 474.0)">а</text><text xml:space="preserve" font-family="Tahoma" font-size="44.0" fill="#FFFFFF" transform="matrix(1.00, 0.00, -0.00, -1.00, 644.8, 474.0)">я</text><text xml:space="preserve" font-family="Tahoma" font-size="44.0" fill="#FFFFFF" transform="matrix(1.00, 0.00, -0.00, -1.00, 668.0, 474.0)"> </text><text xml:space="preserve" font-family="Tahoma" font-size="44.0" fill="#FFFFFF" transform="matrix(1.00, 0.00, -0.00, -1.00, 681.7, 474.0)">д</text><text xml:space="preserve" font-family="Tahoma" font-size="44.0" fill="#FFFFFF" transform="matrix(1.00, 0.00, -0.00, -1.00, 706.3, 474.0)">е</text><text xml:space="preserve" font-family="Tahoma" font-size="44.0" fill="#FFFFFF" transform="matrix(1.00, 0.00, -0.00, -1.00, 729.5, 474.0)">я</text><text xml:space="preserve" font-family="Tahoma" font-size="44.0" fill="#FFFFFF" transform="matrix(1.00, 0.00, -0.00, -1.00, 752.7, 474.0)">т</text><text xml:space="preserve" font-family="Tahoma" font-size="44.0" fill="#FFFFFF" transform="matrix(1.00, 0.00, -0.00, -1.00, 773.2, 474.0)">е</text><text xml:space="preserve" font-family="Tahoma" font-size="44.0" fill="#FFFFFF" transform="matrix(1.00, 0.00, -0.00, -1.00, 796.4, 474.0)">л</text><text xml:space="preserve" font-family="Tahoma" font-size="44.0" fill="#FFFFFF" transform="matrix(1.00, 0.00, -0.00, -1.00, 820.8, 474.0)">ь</text><text xml:space="preserve" font-family="Tahoma" font-size="44.0" fill="#FFFFFF" transform="matrix(1.00, 0.00, -0.00, -1.00, 842.9, 474.0)">н</text><text xml:space="preserve" font-family="Tahoma" font-size="44.0" fill="#FFFFFF" transform="matrix(1.00, 0.00, -0.00, -1.00, 867.6, 474.0)">о</text><text xml:space="preserve" font-family="Tahoma" font-size="44.0" fill="#FFFFFF" transform="matrix(1.00, 0.00, -0.00, -1.00, 891.5, 474.0)">с</text><text xml:space="preserve" font-family="Tahoma" font-size="44.0" fill="#FFFFFF" transform="matrix(1.00, 0.00, -0.00, -1.00, 911.8, 474.0)">т</text><text xml:space="preserve" font-family="Tahoma" font-size="44.0" fill="#FFFFFF" transform="matrix(1.00, 0.00, -0.00, -1.00, 932.4, 474.0)">ь</text><text xml:space="preserve" font-family="Tahoma" font-size="44.0" fill="#FFFFFF" transform="matrix(1.00, 0.00, -0.00, -1.00, 954.4, 474.0)">,</text><text xml:space="preserve" font-family="Tahoma" font-size="44.0" fill="#FFFFFF" transform="matrix(1.00, 0.00, -0.00, -1.00, 967.7, 474.0)"> </text><image xlink:href="EA4957DF285FF22D434FD69668901EC3.png" width="532.00" height="45.00" transform="matrix(1.00, 0.00, -0.00, -1.00, 237.0, 455.0)"></image><text xml:space="preserve" font-family="Tahoma" font-size="44.0" fill="#FFFFFF" transform="matrix(1.00, 0.00, -0.00, -1.00, 235.0, 421.0)">н</text><text xml:space="preserve" font-family="Tahoma" font-size="44.0" fill="#FFFFFF" transform="matrix(1.00, 0.00, -0.00, -1.00, 259.8, 421.0)">е</text><text xml:space="preserve" font-family="Tahoma" font-size="44.0" fill="#FFFFFF" transform="matrix(1.00, 0.00, -0.00, -1.00, 282.9, 421.0)"> </text><text xml:space="preserve" font-family="Tahoma" font-size="44.0" fill="#FFFFFF" transform="matrix(1.00, 0.00, -0.00, -1.00, 296.7, 421.0)">н</text><text xml:space="preserve" font-family="Tahoma" font-size="44.0" fill="#FFFFFF" transform="matrix(1.00, 0.00, -0.00, -1.00, 321.4, 421.0)">а</text><text xml:space="preserve" font-family="Tahoma" font-size="44.0" fill="#FFFFFF" transform="matrix(1.00, 0.00, -0.00, -1.00, 344.5, 421.0)">б</text><text xml:space="preserve" font-family="Tahoma" font-size="44.0" fill="#FFFFFF" transform="matrix(1.00, 0.00, -0.00, -1.00, 368.7, 421.0)">л</text><text xml:space="preserve" font-family="Tahoma" font-size="44.0" fill="#FFFFFF" transform="matrix(1.00, 0.00, -0.00, -1.00, 393.2, 421.0)">ю</text><text xml:space="preserve" font-family="Tahoma" font-size="44.0" fill="#FFFFFF" transform="matrix(1.00, 0.00, -0.00, -1.00, 426.7, 421.0)">д</text><text xml:space="preserve" font-family="Tahoma" font-size="44.0" fill="#FFFFFF" transform="matrix(1.00, 0.00, -0.00, -1.00, 451.2, 421.0)">а</text><text xml:space="preserve" font-family="Tahoma" font-size="44.0" fill="#FFFFFF" transform="matrix(1.00, 0.00, -0.00, -1.00, 474.3, 421.0)">е</text><text xml:space="preserve" font-family="Tahoma" font-size="44.0" fill="#FFFFFF" transform="matrix(1.00, 0.00, -0.00, -1.00, 497.5, 421.0)">м</text><text xml:space="preserve" font-family="Tahoma" font-size="44.0" fill="#FFFFFF" transform="matrix(1.00, 0.00, -0.00, -1.00, 525.6, 421.0)">а</text><text xml:space="preserve" font-family="Tahoma" font-size="44.0" fill="#FFFFFF" transform="matrix(1.00, 0.00, -0.00, -1.00, 548.7, 421.0)">я</text><text xml:space="preserve" font-family="Tahoma" font-size="44.0" fill="#FFFFFF" transform="matrix(1.00, 0.00, -0.00, -1.00, 571.9, 421.0)"> </text><text xml:space="preserve" font-family="Tahoma" font-size="44.0" fill="#FFFFFF" transform="matrix(1.00, 0.00, -0.00, -1.00, 585.6, 421.0)">п</text><text xml:space="preserve" font-family="Tahoma" font-size="44.0" fill="#FFFFFF" transform="matrix(1.00, 0.00, -0.00, -1.00, 610.4, 421.0)">р</text><text xml:space="preserve" font-family="Tahoma" font-size="44.0" fill="#FFFFFF" transform="matrix(1.00, 0.00, -0.00, -1.00, 634.7, 421.0)">я</text><text xml:space="preserve" font-family="Tahoma" font-size="44.0" fill="#FFFFFF" transform="matrix(1.00, 0.00, -0.00, -1.00, 658.0, 421.0)">м</text><text xml:space="preserve" font-family="Tahoma" font-size="44.0" fill="#FFFFFF" transform="matrix(1.00, 0.00, -0.00, -1.00, 686.0, 421.0)">ы</text><text xml:space="preserve" font-family="Tahoma" font-size="44.0" fill="#FFFFFF" transform="matrix(1.00, 0.00, -0.00, -1.00, 716.5, 421.0)">м</text><text xml:space="preserve" font-family="Tahoma" font-size="44.0" fill="#FFFFFF" transform="matrix(1.00, 0.00, -0.00, -1.00, 744.6, 421.0)">и</text><text xml:space="preserve" font-family="Tahoma" font-size="44.0" fill="#FFFFFF" transform="matrix(1.00, 0.00, -0.00, -1.00, 769.4, 421.0)"> </text><image xlink:href="DFC76A8766DDC2563A3A63F40728A939.png" width="563.00" height="33.00" transform="matrix(1.00, 0.00, -0.00, -1.00, 236.0, 393.0)"></image><text xml:space="preserve" font-family="Tahoma" font-size="44.0" fill="#FFFFFF" transform="matrix(1.00, 0.00, -0.00, -1.00, 235.0, 368.0)">с</text><text xml:space="preserve" font-family="Tahoma" font-size="44.0" fill="#FFFFFF" transform="matrix(1.00, 0.00, -0.00, -1.00, 255.3, 368.0)">т</text><text xml:space="preserve" font-family="Tahoma" font-size="44.0" fill="#FFFFFF" transform="matrix(1.00, 0.00, -0.00, -1.00, 275.9, 368.0)">а</text><text xml:space="preserve" font-family="Tahoma" font-size="44.0" fill="#FFFFFF" transform="matrix(1.00, 0.00, -0.00, -1.00, 298.9, 368.0)">т</text><text xml:space="preserve" font-family="Tahoma" font-size="44.0" fill="#FFFFFF" transform="matrix(1.00, 0.00, -0.00, -1.00, 319.5, 368.0)">и</text><text xml:space="preserve" font-family="Tahoma" font-size="44.0" fill="#FFFFFF" transform="matrix(1.00, 0.00, -0.00, -1.00, 344.3, 368.0)">с</text><text xml:space="preserve" font-family="Tahoma" font-size="44.0" fill="#FFFFFF" transform="matrix(1.00, 0.00, -0.00, -1.00, 364.6, 368.0)">т</text><text xml:space="preserve" font-family="Tahoma" font-size="44.0" fill="#FFFFFF" transform="matrix(1.00, 0.00, -0.00, -1.00, 385.1, 368.0)">и</text><text xml:space="preserve" font-family="Tahoma" font-size="44.0" fill="#FFFFFF" transform="matrix(1.00, 0.00, -0.00, -1.00, 410.0, 368.0)">ч</text><text xml:space="preserve" font-family="Tahoma" font-size="44.0" fill="#FFFFFF" transform="matrix(1.00, 0.00, -0.00, -1.00, 433.8, 368.0)">е</text><text xml:space="preserve" font-family="Tahoma" font-size="44.0" fill="#FFFFFF" transform="matrix(1.00, 0.00, -0.00, -1.00, 457.0, 368.0)">с</text><text xml:space="preserve" font-family="Tahoma" font-size="44.0" fill="#FFFFFF" transform="matrix(1.00, 0.00, -0.00, -1.00, 477.3, 368.0)">к</text><text xml:space="preserve" font-family="Tahoma" font-size="44.0" fill="#FFFFFF" transform="matrix(1.00, 0.00, -0.00, -1.00, 499.3, 368.0)">и</text><text xml:space="preserve" font-family="Tahoma" font-size="44.0" fill="#FFFFFF" transform="matrix(1.00, 0.00, -0.00, -1.00, 524.1, 368.0)">м</text><text xml:space="preserve" font-family="Tahoma" font-size="44.0" fill="#FFFFFF" transform="matrix(1.00, 0.00, -0.00, -1.00, 552.2, 368.0)">и</text><text xml:space="preserve" font-family="Tahoma" font-size="44.0" fill="#FFFFFF" transform="matrix(1.00, 0.00, -0.00, -1.00, 577.0, 368.0)"> </text><text xml:space="preserve" font-family="Tahoma" font-size="44.0" fill="#FFFFFF" transform="matrix(1.00, 0.00, -0.00, -1.00, 590.7, 368.0)">м</text><text xml:space="preserve" font-family="Tahoma" font-size="44.0" fill="#FFFFFF" transform="matrix(1.00, 0.00, -0.00, -1.00, 618.8, 368.0)">е</text><text xml:space="preserve" font-family="Tahoma" font-size="44.0" fill="#FFFFFF" transform="matrix(1.00, 0.00, -0.00, -1.00, 642.0, 368.0)">т</text><text xml:space="preserve" font-family="Tahoma" font-size="44.0" fill="#FFFFFF" transform="matrix(1.00, 0.00, -0.00, -1.00, 662.5, 368.0)">о</text><text xml:space="preserve" font-family="Tahoma" font-size="44.0" fill="#FFFFFF" transform="matrix(1.00, 0.00, -0.00, -1.00, 686.4, 368.0)">д</text><text xml:space="preserve" font-family="Tahoma" font-size="44.0" fill="#FFFFFF" transform="matrix(1.00, 0.00, -0.00, -1.00, 710.9, 368.0)">а</text><text xml:space="preserve" font-family="Tahoma" font-size="44.0" fill="#FFFFFF" transform="matrix(1.00, 0.00, -0.00, -1.00, 734.0, 368.0)">м</text><text xml:space="preserve" font-family="Tahoma" font-size="44.0" fill="#FFFFFF" transform="matrix(1.00, 0.00, -0.00, -1.00, 762.1, 368.0)">и</text><text xml:space="preserve" font-family="Tahoma" font-size="44.0" fill="#FFFFFF" transform="matrix(1.00, 0.00, -0.00, -1.00, 786.9, 368.0)">.</text><text xml:space="preserve" font-family="Tahoma" font-size="44.0" fill="#FFFFFF" transform="matrix(1.00, 0.00, -0.00, -1.00, 800.3, 368.0)"> </text><g><clipPath id="clip-846"><path d="M 1261.0 895.0 L 1878.0 895.0 L 1878.0 161.0 L 1261.0 161.0 Z M 1260.9 894.6 "></path></clipPath><g clip-path="url(#clip-846)"><image xlink:href="A59E088D8DAE836B5F9E9D09F6254798.png" width="617.00" height="734.00" transform="matrix(1.00, 0.00, -0.00, -1.00, 1261.0, 895.0)"></image></g></g><image xlink:href="05B76FCDEBEC46EE869EC4AD8C050E67.png" width="2571.00" height="505.00" transform="matrix(0.24, 0.00, -0.00, -0.24, 1260.9, 161.4)"></image></g></svg>