<?xml version="1.0" encoding="UTF-8"?><svg xmlns="http://www.w3.org/2000/svg" xmlns:xlink="http://www.w3.org/1999/xlink" clip-rule="evenodd" stroke-miterlimit="4.00" viewBox="0 0 1344 856"><desc>SVG generated by Keynote</desc><defs></defs><g transform="matrix(1.00, 0.00, -0.00, -1.00, 0.0, 856.0)"><g><clipPath id="clip-915"><path d="M 2.0 734.0 L 1342.0 734.0 L 1342.0 122.0 L 2.0 122.0 Z M 1.8 733.5 "></path></clipPath><g clip-path="url(#clip-915)"><g><clipPath id="clip-916"><path d="M 3.9 201.4 C 4.0 245.7 3.5 380.1 2.9 499.9 L 1.8 717.8 L 6.5 718.9 C 26.4 723.7 81.0 724.8 346.3 725.6 C 924.4 727.5 1333.3 725.3 1338.3 720.3 C 1339.1 719.4 1340.4 584.6 1341.0 420.5 L 1342.2 122.0 L 1002.3 123.0 C 349.4 124.0 11.2 123.7 7.5 122.3 C 4.1 120.9 3.9 125.5 3.9 201.4 M 434.3 744.4 C 430.7 748.7 430.5 763.1 434.0 766.5 C 436.0 768.5 436.1 767.7 434.7 762.7 C 433.5 758.6 433.8 753.8 435.5 748.7 C 438.5 740.1 438.3 739.5 434.3 744.4 M 902.9 744.2 C 904.6 746.2 905.2 751.1 904.6 757.8 C 904.0 763.6 903.8 768.3 904.1 768.3 C 904.4 768.3 905.8 764.9 907.2 760.8 C 909.1 755.0 909.1 751.9 907.1 747.2 C 905.7 743.8 903.6 741.0 902.4 741.0 C 901.2 741.0 901.5 742.4 902.9 744.2 M 628.7 744.8 C 627.6 745.6 626.7 751.7 626.7 758.3 C 626.7 767.7 627.4 770.4 629.8 770.4 C 632.3 770.4 633.0 767.6 632.9 757.9 C 632.9 744.8 632.1 742.4 628.7 744.8 M 641.4 745.1 C 640.8 746.2 641.2 747.6 642.4 748.3 C 643.5 749.0 644.2 754.3 643.8 760.0 C 643.4 766.4 644.1 770.4 645.4 770.4 C 648.7 770.4 648.4 745.5 645.1 744.3 C 643.7 743.7 642.1 744.1 641.4 745.1 M 655.1 745.2 C 655.1 745.9 656.1 747.5 657.4 748.8 C 658.7 750.1 659.4 755.4 658.9 760.8 C 658.4 767.1 659.0 770.4 660.6 770.4 C 662.0 770.4 662.8 768.7 662.5 766.7 C 661.7 761.8 665.1 757.8 670.2 757.8 C 673.4 757.8 674.1 756.6 673.6 752.0 C 673.0 747.0 671.8 746.1 664.0 745.0 C 659.1 744.4 655.1 744.4 655.1 745.2 M 773.0 745.0 L 761.0 745.0 L 761.0 757.7 L 761.0 770.0 L 771.6 770.0 L 782.0 770.0 L 781.0 759.7 C 780.6 753.5 781.7 748.0 783.2 746.2 C 784.7 744.5 785.5 743.3 785.0 743.5 C 784.6 743.7 779.0 744.2 772.7 744.6 M 478.0 746.9 C 475.1 747.5 474.4 749.9 474.4 759.0 C 474.4 770.4 477.1 774.3 479.3 766.0 C 480.0 763.1 481.3 762.1 483.2 763.2 C 484.7 764.1 485.3 764.0 484.5 763.2 C 483.7 762.3 485.3 757.9 488.1 753.4 L 493.2 745.0 L 487.4 746.0 C 484.2 746.2 479.9 746.5 478.0 746.9 M 502.2 746.9 C 500.7 747.9 498.6 751.7 497.6 755.4 C 496.0 761.0 496.4 762.9 499.7 766.3 C 505.3 771.9 509.0 771.5 505.0 765.7 C 500.8 759.7 500.8 753.8 505.2 749.0 C 508.7 745.1 507.0 743.9 502.2 746.9 M 525.9 757.6 C 525.9 768.8 526.3 770.2 530.5 771.0 C 534.8 771.8 534.9 771.6 532.1 767.5 C 528.4 762.2 528.1 751.2 531.5 747.7 C 533.5 745.8 533.1 745.2 530.0 745.2 C 526.4 745.2 525.9 746.7 525.9 757.6 M 552.0 747.0 L 542.0 748.0 L 542.0 759.0 C 542.0 768.4 542.3 770.4 545.3 770.5 C 547.3 770.6 559.4 770.5 572.1 770.3 C 584.8 770.2 596.8 770.1 598.9 770.1 C 602.4 770.1 602.4 769.9 598.9 765.1 C 596.8 762.3 592.5 759.1 589.2 757.9 C 584.7 756.3 583.4 754.7 584.2 751.7 C 585.1 748.1 583.9 747.6 573.4 746.9 C 566.9 746.6 557.1 746.5 551.6 746.9 M 608.7 745.7 C 608.7 746.0 608.4 751.7 608.2 758.3 C 607.9 767.8 608.5 770.4 610.9 770.4 C 613.4 770.4 614.1 767.6 614.1 757.8 C 614.1 749.1 613.3 745.2 611.5 745.2 C 610.0 745.2 608.8 745.4 608.7 745.7 M 700.7 746.8 C 695.2 747.5 695.0 748.1 695.0 759.0 L 695.0 770.0 L 703.4 770.0 C 708.0 770.0 711.8 769.5 711.8 768.3 C 711.8 767.1 710.6 766.4 709.1 766.7 C 707.4 767.1 706.5 764.4 706.5 758.8 C 706.5 753.2 707.4 750.6 709.1 751.0 C 710.6 751.3 711.8 750.6 711.8 749.6 C 711.8 747.0 707.6 746.0 700.7 746.8 M 735.2 747.6 C 731.6 748.9 730.7 751.0 730.7 757.3 C 730.7 767.1 733.6 770.4 742.2 770.4 C 745.8 770.4 749.9 769.3 751.3 767.9 C 754.0 765.1 754.6 753.9 752.2 750.2 C 750.0 747.0 740.7 745.6 735.2 747.6 M 793.0 758.0 L 793.0 770.0 L 800.5 770.0 C 804.9 770.0 808.4 769.5 808.4 768.3 C 808.4 767.1 807.2 766.4 805.8 766.7 C 804.3 767.0 802.9 764.7 802.5 761.4 C 802.1 758.2 800.9 756.2 799.8 756.8 C 796.7 758.8 795.1 751.7 797.9 748.3 C 800.1 745.7 799.8 745.2 796.6 745.2 C 793.2 745.2 792.6 746.9 792.6 757.8 M 805.2 747.3 C 806.0 748.4 807.0 749.4 807.5 749.4 C 808.0 749.4 808.4 748.4 808.4 747.3 C 808.4 746.1 807.4 745.2 806.2 745.2 C 804.9 745.2 804.5 746.1 805.2 747.3 M 834.6 746.9 C 832.3 748.5 831.6 770.4 833.9 770.4 C 835.0 770.4 837.6 747.9 836.8 745.8 C 836.7 745.6 835.7 746.1 834.6 746.9 M 846.2 748.1 C 847.3 749.3 848.0 754.8 848.0 760.3 L 848.0 770.0 L 856.0 770.0 C 863.2 770.0 863.4 770.2 860.3 766.7 C 856.1 762.1 856.2 760.2 861.1 753.3 C 863.3 750.2 865.1 747.3 865.1 746.8 C 865.1 746.3 860.4 745.9 854.6 745.9 C 847.3 745.9 844.7 746.6 846.2 748.1 M 872.5 758.2 C 872.5 765.3 873.4 770.4 874.7 770.4 C 875.9 770.4 876.5 767.4 876.0 763.3 C 875.6 759.4 876.2 755.6 877.5 754.8 C 880.0 753.2 888.6 765.9 886.9 768.7 C 886.4 769.6 887.6 770.4 889.7 770.4 C 892.9 770.4 893.0 768.6 893.0 757.9 L 893.0 745.0 L 883.0 746.0 L 872.0 746.0 L 872.0 758.0 M 444.0 749.4 C 443.2 750.6 444.1 750.9 445.9 750.2 C 449.6 748.8 450.2 747.3 447.2 747.3 C 446.1 747.3 444.7 748.2 444.0 749.4 M 457.7 750.6 C 461.9 755.6 462.2 764.8 458.2 767.8 C 456.3 769.2 455.7 770.4 457.0 770.4 C 460.8 770.4 466.0 764.2 466.0 759.6 C 466.0 753.5 462.1 747.3 458.3 747.3 C 455.5 747.3 455.4 747.8 457.7 750.6 M 679.2 759.6 C 679.2 768.6 679.9 771.7 681.8 771.0 C 683.5 770.3 684.5 765.7 684.5 758.6 C 684.5 751.0 683.6 747.3 681.8 747.3 C 680.0 747.3 679.2 751.2 679.2 759.6 M 815.8 758.8 C 815.8 766.7 816.6 770.4 818.4 770.4 C 819.8 770.4 821.0 768.6 821.0 766.3 C 821.0 764.1 822.1 761.6 823.4 760.8 C 825.0 759.8 824.6 758.7 822.2 757.3 C 820.0 756.1 819.2 753.9 820.0 751.3 C 820.8 748.7 820.3 747.3 818.5 747.3 C 816.6 747.3 815.8 750.7 815.8 758.8 M 451.3 759.0 C 451.3 760.8 452.2 761.6 453.4 760.9 C 454.6 760.2 455.0 758.7 454.3 757.6 C 452.5 754.7 451.3 755.3 451.3 759.0 M 445.0 768.3 C 445.0 769.5 446.0 770.4 447.2 770.4 C 448.4 770.4 448.9 769.5 448.1 768.3 C 447.4 767.1 446.4 766.2 445.9 766.2 C 445.4 766.2 445.0 767.1 445.0 768.3 M 513.5 767.9 C 512.9 768.9 513.8 769.7 515.5 769.7 C 517.1 769.7 518.5 768.9 518.5 767.9 C 518.5 767.0 517.6 766.2 516.5 766.2 C 515.4 766.2 514.1 767.0 513.5 767.9 M 638.1 783.6 C 638.1 783.8 637.8 790.0 637.6 797.2 C 637.3 808.4 637.7 810.3 640.8 810.3 C 643.7 810.3 644.2 809.1 643.2 804.3 C 642.6 800.9 643.0 797.6 644.2 796.8 C 647.0 795.1 653.8 805.1 651.9 808.1 C 651.0 809.6 654.4 810.2 661.9 809.9 C 671.4 809.4 673.2 808.8 672.4 805.9 C 671.9 804.0 672.6 801.7 673.9 800.9 C 675.6 799.8 675.6 798.6 673.7 796.3 C 671.7 793.9 671.6 792.2 673.4 789.4 C 676.6 784.3 676.0 783.9 664.0 784.8 C 654.1 785.4 653.8 785.7 654.6 791.3 C 655.1 794.6 654.5 797.8 653.3 798.5 C 650.9 800.0 642.0 789.7 643.5 787.2 C 644.1 786.3 643.1 785.0 641.4 784.3 C 639.7 783.7 638.2 783.3 638.1 783.6 M 773.0 785.1 C 772.3 785.7 772.0 791.5 772.0 798.0 L 772.0 810.0 L 783.5 810.0 L 795.4 810.0 L 793.6 803.8 C 792.7 800.4 792.7 795.0 793.6 791.6 L 795.4 785.0 L 784.9 785.0 C 779.1 784.6 773.8 784.5 773.0 785.1 M 1038.9 790.6 C 1039.5 794.2 1039.0 797.8 1037.8 798.5 C 1036.6 799.2 1036.2 801.7 1036.8 804.0 C 1037.7 807.8 1039.7 808.2 1056.5 808.4 C 1090.7 808.9 1089.9 808.9 1089.9 805.2 C 1089.9 799.7 1094.0 799.5 1096.4 804.7 C 1099.8 812.1 1112.4 812.2 1115.2 804.8 C 1116.2 802.1 1118.1 799.8 1119.2 799.8 C 1120.4 799.8 1121.4 798.9 1121.4 797.7 C 1121.4 796.6 1120.2 795.8 1118.8 796.1 C 1117.1 796.5 1115.8 794.4 1116.0 790.4 L 1117.0 784.0 L 1077.2 784.0 L 1037.8 784.0 L 1038.9 790.6 M 212.9 797.7 C 212.9 807.5 213.6 810.3 216.0 810.3 C 218.5 810.3 219.2 807.5 219.2 797.7 C 219.2 787.9 218.5 785.1 216.0 785.1 C 213.6 785.1 212.9 787.9 212.9 797.7 M 229.7 797.7 C 229.7 808.8 230.2 810.3 233.8 810.3 C 237.0 810.3 237.3 809.7 235.3 807.8 C 232.2 804.7 232.1 794.7 235.0 789.2 C 236.8 785.9 236.5 785.1 233.4 785.1 C 230.2 785.1 229.7 787.0 229.7 797.7 M 244.0 798.0 L 244.0 810.0 L 252.2 810.0 C 257.7 810.0 260.6 809.1 262.1 806.3 C 263.9 802.9 263.1 801.6 256.7 797.8 C 251.1 794.5 249.4 792.3 250.3 789.2 C 251.0 786.4 250.3 785.1 247.9 785.1 C 245.0 785.1 244.4 787.4 244.4 797.7 M 273.3 786.6 C 266.9 787.8 263.8 799.0 268.1 805.6 C 272.4 812.3 284.1 812.1 288.5 805.3 C 291.1 801.4 291.3 799.1 289.5 794.4 C 288.2 791.0 286.1 787.6 284.7 786.8 C 282.1 785.1 281.0 785.1 273.3 786.6 M 300.9 790.1 C 293.7 797.5 293.6 799.1 299.3 804.8 C 305.7 811.1 310.7 811.7 318.0 806.9 C 324.0 803.0 325.4 791.4 319.9 791.4 C 318.2 791.4 316.2 790.0 315.5 788.3 C 313.8 783.8 306.1 784.7 300.9 790.1 M 330.5 797.7 C 330.5 808.5 331.1 810.3 334.3 810.3 C 336.4 810.3 337.6 809.5 337.0 808.4 C 336.3 807.4 337.2 805.4 338.9 804.0 C 342.7 800.8 343.1 795.4 339.4 796.1 C 337.8 796.5 336.8 794.4 336.9 790.9 C 336.9 787.0 335.9 785.1 333.7 785.1 C 331.2 785.1 330.5 787.8 330.5 797.7 M 345.2 787.2 C 345.9 788.4 346.9 789.3 347.4 789.3 C 347.9 789.3 348.4 788.4 348.4 787.2 C 348.4 786.0 347.4 785.1 346.1 785.1 C 344.9 785.1 344.5 786.0 345.2 787.2 M 353.9 790.9 C 351.3 795.8 351.3 797.4 353.9 802.4 C 357.8 810.1 361.2 809.9 358.3 802.1 C 356.4 797.2 356.7 795.0 359.6 790.6 C 362.6 785.9 362.7 785.1 360.0 785.1 C 358.3 785.1 355.5 787.7 353.9 790.9 M 382.4 787.6 C 377.1 793.0 380.5 808.2 387.0 808.2 C 388.2 808.2 388.0 807.1 386.6 805.7 C 385.2 804.3 384.1 800.2 384.1 796.7 C 384.1 793.1 385.2 789.0 386.6 787.6 C 388.0 786.2 388.2 785.1 387.0 785.1 C 385.9 785.1 383.8 786.2 382.4 787.6 M 394.6 785.9 C 394.6 786.3 396.2 788.0 398.2 789.6 C 401.6 792.2 401.7 792.1 399.0 788.8 C 396.3 785.3 394.6 784.2 394.6 785.9 M 408.2 787.2 C 406.1 790.6 408.0 810.3 410.5 810.3 C 411.8 810.3 412.4 807.7 411.9 804.3 C 411.4 800.9 411.9 797.6 413.1 796.9 C 415.6 795.4 424.6 806.9 422.5 809.0 C 421.8 809.7 423.1 810.3 425.5 810.3 C 429.3 810.3 429.7 809.5 428.3 803.5 C 427.5 799.7 426.4 796.2 426.1 795.6 C 425.7 795.0 426.5 792.4 427.9 789.8 C 430.1 785.7 429.9 785.1 426.5 785.1 C 423.4 785.1 422.8 786.3 423.5 791.2 C 424.0 794.5 423.4 797.8 422.2 798.5 C 419.8 800.0 410.8 788.5 412.8 786.4 C 413.6 785.7 413.1 785.1 411.9 785.1 C 410.6 785.1 408.9 786.0 408.2 787.2 M 437.6 797.7 C 437.6 807.9 438.3 810.3 441.0 810.3 C 443.5 810.3 444.1 808.9 443.4 805.0 C 442.8 802.2 443.4 798.6 444.6 797.1 C 446.0 795.5 446.1 793.2 445.0 791.4 C 444.0 789.8 443.6 787.7 444.2 786.8 C 444.8 785.9 443.5 785.1 441.4 785.1 C 438.2 785.1 437.6 787.0 437.6 797.7 M 452.6 787.7 C 455.7 792.0 454.8 800.9 451.5 800.2 C 449.0 799.7 449.0 800.2 451.1 802.7 C 452.6 804.5 453.1 806.9 452.4 808.1 C 451.6 809.3 452.7 810.3 454.8 810.3 C 458.1 810.3 458.6 808.5 458.6 797.7 C 458.6 786.8 458.1 785.1 454.7 785.1 C 452.0 785.1 451.3 785.9 452.6 787.7 M 481.7 797.7 C 481.7 809.8 482.0 810.3 487.0 810.3 C 495.2 810.2 497.6 807.5 498.6 797.6 C 499.7 787.4 497.8 785.0 488.0 785.0 L 482.0 785.0 L 482.0 798.0 M 519.6 797.6 C 519.6 809.7 519.7 810.1 524.8 809.5 C 527.7 809.2 535.4 809.5 542.0 810.2 C 548.6 811.0 556.0 810.8 558.4 809.9 C 564.7 807.6 563.3 799.3 556.3 797.7 C 552.5 796.7 551.1 795.0 551.1 791.2 C 551.2 786.6 550.2 786.0 542.7 785.8 C 536.7 785.7 533.5 786.7 531.5 789.6 C 528.5 794.0 523.8 792.7 525.7 788.0 C 526.3 786.2 525.4 785.1 523.2 785.1 C 520.2 785.1 519.6 787.2 519.6 797.6 M 570.0 797.7 C 570.0 808.2 570.6 810.3 573.6 810.3 C 576.6 810.3 576.9 809.4 575.3 805.2 C 573.9 801.5 574.2 799.5 576.3 797.6 C 578.5 795.9 578.8 794.1 577.4 791.5 C 576.3 789.4 576.0 787.2 576.7 786.4 C 577.4 785.7 576.2 785.1 574.0 785.1 C 570.5 785.1 570.0 786.7 570.0 797.7 M 585.7 790.2 C 587.1 793.9 586.8 796.0 584.5 797.8 C 582.3 799.7 582.1 801.1 583.8 803.1 C 585.1 804.7 585.5 806.9 584.7 808.1 C 584.0 809.3 585.1 810.3 587.2 810.3 C 590.4 810.3 591.0 808.5 591.0 797.7 C 591.0 787.2 590.4 785.1 587.4 785.1 C 584.4 785.1 584.1 786.0 585.7 790.2 M 608.2 793.7 C 605.9 799.4 604.0 801.8 602.3 800.7 C 600.6 799.6 600.1 800.2 601.0 802.4 C 601.6 804.1 601.1 806.7 599.9 808.0 C 598.1 809.7 598.6 810.3 601.9 810.3 C 605.1 810.3 607.2 807.9 609.7 801.8 C 611.7 796.7 614.0 793.9 615.4 794.7 C 617.2 795.8 614.6 788.9 612.0 785.6 C 611.8 785.3 610.1 788.9 608.2 793.7 M 622.5 791.9 C 622.5 796.4 621.6 798.6 619.8 798.2 C 617.8 797.8 617.9 799.3 620.4 804.0 C 625.7 814.3 628.8 811.9 628.8 797.7 C 628.8 787.9 628.1 785.1 625.6 785.1 C 623.4 785.1 622.5 787.2 622.5 791.9 M 683.4 797.7 C 683.4 807.5 684.1 810.3 686.6 810.3 C 689.0 810.3 689.7 807.5 689.7 797.7 C 689.7 787.9 689.0 785.1 686.6 785.1 C 684.1 785.1 683.4 787.9 683.4 797.7 M 693.9 787.2 C 694.7 788.4 696.1 788.8 697.2 788.2 C 700.1 786.4 699.6 785.1 695.9 785.1 C 694.1 785.1 693.2 786.1 693.9 787.2 M 708.5 787.0 C 710.1 789.7 703.9 794.2 700.4 792.8 C 697.8 791.8 697.9 792.8 700.6 799.4 C 702.4 803.7 704.2 807.5 704.6 808.0 C 705.0 808.4 707.3 804.3 709.6 798.8 C 713.7 789.3 714.3 788.9 720.5 790.1 C 726.1 791.2 726.6 791.0 724.4 788.3 C 721.6 785.0 706.5 783.7 708.5 787.0 M 731.8 787.3 C 736.9 795.5 733.6 809.8 727.3 807.3 C 725.7 806.8 723.9 807.2 723.3 808.3 C 722.6 809.4 725.5 810.0 730.0 810.0 L 738.0 810.0 L 738.0 797.7 C 738.0 786.9 737.5 785.1 734.2 785.1 C 732.1 785.1 731.0 786.1 731.8 787.3 M 748.0 792.4 C 749.7 797.8 749.6 801.2 747.9 805.0 C 745.8 809.6 746.0 810.3 749.2 810.3 C 751.9 810.3 752.9 808.7 752.8 804.5 C 752.8 800.2 753.8 798.6 757.3 798.1 C 763.2 797.3 766.8 792.9 765.1 788.5 C 764.2 786.1 761.2 785.0 754.8 785.0 L 745.8 785.0 L 748.0 792.4 M 802.0 790.5 C 798.1 800.8 801.3 806.7 811.9 808.8 C 819.9 810.4 823.8 806.7 823.8 797.3 C 823.8 785.2 806.2 779.7 802.0 790.5 M 832.0 792.4 C 833.7 797.8 833.6 801.2 831.9 805.0 C 829.9 809.3 830.1 810.3 832.5 810.3 C 834.1 810.3 836.4 811.8 837.4 813.7 C 838.8 816.2 839.8 816.4 840.9 814.7 C 842.0 812.8 843.2 812.9 845.7 814.9 C 848.3 817.0 848.7 817.0 847.5 815.0 C 846.5 813.4 847.4 811.8 849.8 810.8 C 852.8 809.6 854.0 806.9 854.0 797.2 L 854.0 785.0 L 841.7 785.0 L 829.8 785.0 L 832.0 792.4 M 874.6 787.1 C 874.0 788.2 875.3 790.1 877.7 791.4 C 880.0 792.6 881.9 795.0 881.9 796.7 C 881.9 798.4 883.2 799.2 884.9 798.5 C 889.0 797.0 891.2 801.5 888.1 805.2 C 886.7 806.8 886.5 808.2 887.5 808.2 C 895.0 808.2 897.4 791.0 890.5 787.3 C 885.4 784.6 876.3 784.5 874.6 787.1 M 901.9 797.7 C 901.9 808.5 902.4 810.1 905.4 809.1 C 907.3 808.5 909.5 809.0 910.2 810.2 C 911.1 811.7 912.9 811.7 915.4 810.4 C 917.5 809.3 919.6 808.6 920.0 808.8 C 920.5 809.1 919.2 808.0 917.1 806.4 C 912.3 802.6 912.5 798.7 917.8 791.2 C 921.0 786.6 921.4 785.1 919.2 785.1 C 917.5 785.1 915.1 787.5 913.8 790.5 C 911.0 796.5 906.2 795.3 907.8 789.1 C 908.5 786.4 907.7 785.1 905.4 785.1 C 902.5 785.1 901.9 787.4 901.9 797.7 M 927.7 790.4 C 922.4 802.1 930.8 810.6 944.1 807.3 C 948.3 806.2 949.1 804.7 949.1 798.1 C 949.1 788.3 946.2 785.1 937.1 785.1 C 931.7 785.1 929.6 786.3 927.7 790.4 M 959.3 794.6 C 959.8 800.1 959.0 805.4 957.5 807.2 C 955.4 809.8 955.7 810.3 959.1 810.3 C 962.4 810.3 963.1 809.2 962.3 805.1 C 961.6 801.5 962.4 799.4 964.7 798.5 C 969.3 796.8 974.9 801.7 973.6 806.5 C 973.0 809.0 973.8 810.3 976.1 810.3 C 979.0 810.3 980.0 808.0 980.0 797.7 L 980.0 785.0 L 969.1 785.0 L 959.0 785.0 L 959.0 795.0 M 987.8 790.4 C 980.8 801.0 992.5 814.3 1003.5 808.3 C 1009.0 805.4 1010.9 798.2 1008.1 790.8 C 1005.1 782.9 992.9 782.6 987.8 790.4 M 1025.1 792.6 C 1023.7 795.5 1021.7 797.4 1020.6 796.7 C 1019.4 795.9 1018.5 797.6 1018.5 800.3 C 1018.5 803.0 1017.3 806.4 1015.9 807.8 C 1014.0 809.7 1014.6 810.3 1018.9 810.3 C 1023.4 810.3 1024.7 809.1 1025.8 803.9 C 1026.6 800.3 1028.5 797.0 1030.0 796.4 C 1032.7 795.3 1031.9 787.2 1029.1 787.2 C 1028.2 787.2 1026.4 789.6 1025.1 792.6 M 370.4 806.1 C 369.7 807.3 370.1 808.2 371.3 808.2 C 372.6 808.2 373.6 807.3 373.6 806.1 C 373.6 805.0 373.1 804.0 372.6 804.0 C 372.1 804.0 371.1 805.0 370.4 806.1 M 395.7 807.2 C 393.5 808.9 392.7 810.3 393.9 810.3 C 395.1 810.3 397.3 808.9 398.8 807.2 C 402.0 803.2 401.0 803.2 395.7 807.2 M 873.5 806.1 C 873.5 807.3 874.5 808.2 875.7 808.2 C 877.0 808.2 877.4 807.3 876.7 806.1 C 876.0 805.0 875.0 804.0 874.4 804.0 C 873.9 804.0 873.5 805.0 873.5 806.1 M 345.2 808.2 C 344.5 809.4 344.9 810.3 346.1 810.3 C 347.4 810.3 348.4 809.4 348.4 808.2 C 348.4 807.1 347.9 806.1 347.4 806.1 C 346.9 806.1 345.9 807.1 345.2 808.2 M 1262.3 856.2 C 1260.4 859.8 1260.6 861.9 1263.2 866.5 C 1266.0 871.4 1266.3 871.5 1265.2 867.5 C 1264.5 864.8 1264.9 861.5 1266.0 860.0 C 1267.3 858.6 1267.4 856.2 1266.4 854.6 C 1265.1 852.4 1264.2 852.7 1262.3 856.2 M 1329.4 861.8 C 1336.3 868.9 1340.6 871.9 1336.0 866.4 C 1334.8 864.9 1334.3 861.6 1334.9 859.0 C 1336.0 855.0 1335.3 854.0 1329.2 854.0 L 1322.2 854.0 L 1329.4 861.8 M 1272.6 861.4 C 1272.6 867.7 1276.7 873.3 1281.4 873.3 C 1284.9 873.3 1285.5 872.4 1284.5 868.6 C 1283.8 866.0 1283.2 862.3 1283.2 860.4 C 1283.2 858.1 1281.5 857.1 1277.9 857.3 C 1274.3 857.5 1272.6 858.8 1272.6 861.4 M 1309.4 858.6 C 1310.1 859.8 1311.1 860.7 1311.6 860.7 C 1312.1 860.7 1312.6 859.8 1312.6 858.6 C 1312.6 857.5 1311.6 856.5 1310.3 856.5 C 1309.1 856.5 1308.7 857.5 1309.4 858.6 M 1163.2 862.3 C 1164.2 864.3 1166.1 868.3 1167.4 871.2 C 1169.7 876.3 1169.7 876.2 1168.4 870.2 C 1167.7 866.7 1167.0 862.7 1167.0 861.3 C 1166.9 859.8 1165.6 858.6 1164.1 858.6 C 1162.1 858.6 1161.8 859.7 1163.2 862.3 M 1180.2 864.1 C 1180.2 869.0 1187.9 876.1 1191.0 874.2 C 1192.0 873.6 1192.6 869.9 1192.3 866.0 C 1191.8 859.8 1191.1 859.0 1186.0 859.1 C 1181.4 859.2 1180.2 860.3 1180.2 864.1 M 1199.1 861.6 C 1199.1 863.3 1200.0 867.0 1201.1 869.9 C 1204.0 877.5 1211.1 875.1 1212.1 866.2 C 1212.8 859.9 1212.4 859.4 1206.0 859.0 C 1201.1 858.6 1199.1 859.4 1199.1 861.6 M 1218.1 862.7 C 1219.1 864.5 1220.3 867.6 1221.0 869.7 C 1221.6 871.7 1223.7 873.3 1225.6 873.3 C 1228.1 873.3 1228.7 872.1 1227.8 868.6 C 1227.1 866.0 1226.5 862.7 1226.5 861.3 C 1226.4 859.8 1224.2 858.9 1221.4 859.1 C 1217.7 859.4 1216.8 860.3 1218.1 862.7 M 1235.0 864.4 C 1235.1 869.5 1235.3 869.7 1236.9 866.0 C 1239.4 860.2 1239.4 858.6 1236.9 858.6 C 1235.8 858.6 1234.9 861.2 1235.0 864.4 M 1241.1 859.4 C 1241.1 859.9 1242.6 863.4 1244.4 867.3 C 1246.8 872.5 1247.4 872.9 1246.5 869.1 C 1245.9 866.2 1245.4 862.7 1245.4 861.3 C 1245.3 859.8 1244.4 858.6 1243.2 858.6 C 1242.1 858.6 1241.1 859.0 1241.1 859.4 M 1253.8 863.4 C 1253.8 867.2 1254.2 867.5 1255.8 864.9 C 1258.5 860.9 1258.5 858.6 1255.8 858.6 C 1254.7 858.6 1253.7 860.8 1253.8 863.4 M 1315.3 872.8 C 1315.5 876.6 1316.4 879.6 1317.3 879.6 C 1319.3 879.6 1319.1 875.6 1316.8 870.2 C 1315.3 866.8 1315.1 867.3 1315.3 872.8 M 1336.6 873.2 C 1337.3 874.3 1336.2 876.2 1334.1 877.5 C 1330.7 879.6 1330.7 879.7 1334.6 879.2 C 1339.0 878.5 1341.9 871.2 1337.8 871.2 C 1336.5 871.2 1336.0 872.1 1336.6 873.2 M 1168.9 880.7 C 1168.2 882.6 1168.9 883.8 1170.8 883.8 C 1172.6 883.8 1173.3 882.6 1172.6 880.7 C 1171.9 878.9 1171.1 877.5 1170.8 877.5 C 1170.4 877.5 1169.6 878.9 1168.9 880.7 M 1209.1 881.0 C 1210.5 881.6 1212.9 881.6 1214.3 881.0 C 1215.8 880.4 1214.6 880.0 1211.7 880.0 C 1208.8 880.0 1207.7 880.4 1209.1 881.0 "></path></clipPath><g clip-path="url(#clip-916)"><image xlink:href="../../C2AFA0CC-D660-4C7C-8F01-56FFF16C3767/assets/998023D7DEA08BC8D90850253E8837B9.png" width="679.00" height="397.00" transform="matrix(2.10, 0.00, -0.00, -2.10, -40.0, 938.0)"></image></g></g></g></g><image xlink:href="../../C2AFA0CC-D660-4C7C-8F01-56FFF16C3767/assets/07883BB5A9CA9A88DE62CAEF7CCD8933.png" width="5586.00" height="505.00" transform="matrix(0.24, 0.00, -0.00, -0.24, 1.8, 122.1)"></image></g></svg>