<?xml version="1.0" encoding="UTF-8"?><svg xmlns="http://www.w3.org/2000/svg" xmlns:xlink="http://www.w3.org/1999/xlink" clip-rule="evenodd" stroke-miterlimit="4.00" viewBox="0 0 1125 199"><desc>SVG generated by Keynote</desc><defs></defs><g transform="matrix(1.00, 0.00, -0.00, -1.00, 0.0, 199.0)"><text xml:space="preserve" font-family="Helvetica-Light" font-size="93.0" fill="#FEFFFF" transform="matrix(1.00, 0.00, -0.00, -1.00, -5.0, 131.0)">П</text><text xml:space="preserve" font-family="Helvetica-Light" font-size="93.0" fill="#FEFFFF" transform="matrix(1.00, 0.00, -0.00, -1.00, 59.5, 131.0)">р</text><text xml:space="preserve" font-family="Helvetica-Light" font-size="93.0" fill="#FEFFFF" transform="matrix(1.00, 0.00, -0.00, -1.00, 112.9, 131.0)">о</text><text xml:space="preserve" font-family="Helvetica-Light" font-size="93.0" fill="#FEFFFF" transform="matrix(1.00, 0.00, -0.00, -1.00, 164.6, 131.0)">ф</text><text xml:space="preserve" font-family="Helvetica-Light" font-size="93.0" fill="#FEFFFF" transform="matrix(1.00, 0.00, -0.00, -1.00, 238.9, 131.0)">е</text><text xml:space="preserve" font-family="Helvetica-Light" font-size="93.0" fill="#FEFFFF" transform="matrix(1.00, 0.00, -0.00, -1.00, 287.2, 131.0)">с</text><text xml:space="preserve" font-family="Helvetica-Light" font-size="93.0" fill="#FEFFFF" transform="matrix(1.00, 0.00, -0.00, -1.00, 335.4, 131.0)">с</text><text xml:space="preserve" font-family="Helvetica-Light" font-size="93.0" fill="#FEFFFF" transform="matrix(1.00, 0.00, -0.00, -1.00, 383.7, 131.0)">и</text><text xml:space="preserve" font-family="Helvetica-Light" font-size="93.0" fill="#FEFFFF" transform="matrix(1.00, 0.00, -0.00, -1.00, 434.2, 131.0)">и</text><text xml:space="preserve" font-family="Helvetica-Light" font-size="93.0" fill="#FEFFFF" transform="matrix(1.00, 0.00, -0.00, -1.00, 484.8, 131.0)"> </text><text xml:space="preserve" font-family="Helvetica-Light" font-size="93.0" fill="#FEFFFF" transform="matrix(1.00, 0.00, -0.00, -1.00, 510.6, 131.0)">к</text><text xml:space="preserve" font-family="Helvetica-Light" font-size="93.0" fill="#FEFFFF" transform="matrix(1.00, 0.00, -0.00, -1.00, 556.9, 131.0)">р</text><text xml:space="preserve" font-family="Helvetica-Light" font-size="93.0" fill="#FEFFFF" transform="matrix(1.00, 0.00, -0.00, -1.00, 610.3, 131.0)">и</text><text xml:space="preserve" font-family="Helvetica-Light" font-size="93.0" fill="#FEFFFF" transform="matrix(1.00, 0.00, -0.00, -1.00, 660.9, 131.0)">м</text><text xml:space="preserve" font-family="Helvetica-Light" font-size="93.0" fill="#FEFFFF" transform="matrix(1.00, 0.00, -0.00, -1.00, 723.0, 131.0)">и</text><text xml:space="preserve" font-family="Helvetica-Light" font-size="93.0" fill="#FEFFFF" transform="matrix(1.00, 0.00, -0.00, -1.00, 773.5, 131.0)">н</text><text xml:space="preserve" font-family="Helvetica-Light" font-size="93.0" fill="#FEFFFF" transform="matrix(1.00, 0.00, -0.00, -1.00, 823.5, 131.0)">а</text><text xml:space="preserve" font-family="Helvetica-Light" font-size="93.0" fill="#FEFFFF" transform="matrix(1.00, 0.00, -0.00, -1.00, 871.7, 131.0)">л</text><text xml:space="preserve" font-family="Helvetica-Light" font-size="93.0" fill="#FEFFFF" transform="matrix(1.00, 0.00, -0.00, -1.00, 924.2, 131.0)">ь</text><text xml:space="preserve" font-family="Helvetica-Light" font-size="93.0" fill="#FEFFFF" transform="matrix(1.00, 0.00, -0.00, -1.00, 970.7, 131.0)">н</text><text xml:space="preserve" font-family="Helvetica-Light" font-size="93.0" fill="#FEFFFF" transform="matrix(1.00, 0.00, -0.00, -1.00, 1020.6, 131.0)">о</text><text xml:space="preserve" font-family="Helvetica-Light" font-size="93.0" fill="#FEFFFF" transform="matrix(1.00, 0.00, -0.00, -1.00, 1072.3, 131.0)">й</text><text xml:space="preserve" font-family="Helvetica-Light" font-size="93.0" fill="#FEFFFF" transform="matrix(1.00, 0.00, -0.00, -1.00, 1122.9, 131.0)"> </text><g><clipPath id="clip-910"><path d="M 0.0 0.0 L 1125.0 0.0 L 1125.0 199.0 L 0.0 199.0 Z M 0.0 0.0 "></path></clipPath><g clip-path="url(#clip-910)"><text xml:space="preserve" font-family="Helvetica-Light" font-size="93.0" fill="#FEFFFF" transform="matrix(1.00, 0.00, -0.00, -1.00, 220.0, 19.0)">э</text><text xml:space="preserve" font-family="Helvetica-Light" font-size="93.0" fill="#FEFFFF" transform="matrix(1.00, 0.00, -0.00, -1.00, 268.2, 19.0)">к</text><text xml:space="preserve" font-family="Helvetica-Light" font-size="93.0" fill="#FEFFFF" transform="matrix(1.00, 0.00, -0.00, -1.00, 314.5, 19.0)">о</text><text xml:space="preserve" font-family="Helvetica-Light" font-size="93.0" fill="#FEFFFF" transform="matrix(1.00, 0.00, -0.00, -1.00, 366.2, 19.0)">н</text><text xml:space="preserve" font-family="Helvetica-Light" font-size="93.0" fill="#FEFFFF" transform="matrix(1.00, 0.00, -0.00, -1.00, 416.1, 19.0)">о</text><text xml:space="preserve" font-family="Helvetica-Light" font-size="93.0" fill="#FEFFFF" transform="matrix(1.00, 0.00, -0.00, -1.00, 467.8, 19.0)">м</text><text xml:space="preserve" font-family="Helvetica-Light" font-size="93.0" fill="#FEFFFF" transform="matrix(1.00, 0.00, -0.00, -1.00, 529.9, 19.0)">и</text><text xml:space="preserve" font-family="Helvetica-Light" font-size="93.0" fill="#FEFFFF" transform="matrix(1.00, 0.00, -0.00, -1.00, 580.5, 19.0)">к</text><text xml:space="preserve" font-family="Helvetica-Light" font-size="93.0" fill="#FEFFFF" transform="matrix(1.00, 0.00, -0.00, -1.00, 626.8, 19.0)">и</text><text xml:space="preserve" font-family="Helvetica-Light" font-size="93.0" fill="#FEFFFF" transform="matrix(1.00, 0.00, -0.00, -1.00, 677.4, 19.0)"> </text><text xml:space="preserve" font-family="Helvetica-Light" font-size="93.0" fill="#FEFFFF" transform="matrix(1.00, 0.00, -0.00, -1.00, 703.2, 19.0)">(</text><text xml:space="preserve" font-family="Helvetica-Light" font-size="93.0" fill="#FEFFFF" transform="matrix(1.00, 0.00, -0.00, -1.00, 734.2, 19.0)">Р</text><text xml:space="preserve" font-family="Helvetica-Light" font-size="93.0" fill="#FEFFFF" transform="matrix(1.00, 0.00, -0.00, -1.00, 792.7, 19.0)">Ф</text><text xml:space="preserve" font-family="Helvetica-Light" font-size="93.0" fill="#FEFFFF" transform="matrix(1.00, 0.00, -0.00, -1.00, 867.1, 19.0)">)</text></g></g></g></svg>