<?xml version="1.0" encoding="UTF-8"?><svg xmlns="http://www.w3.org/2000/svg" xmlns:xlink="http://www.w3.org/1999/xlink" clip-rule="evenodd" stroke-miterlimit="4.00" viewBox="0 0 1119 87"><desc>SVG generated by Keynote</desc><defs></defs><g transform="matrix(1.00, 0.00, -0.00, -1.00, 0.0, 87.0)"><text xml:space="preserve" font-family="Helvetica-Light" font-size="93.0" fill="#FEFFFF" transform="matrix(1.00, 0.00, -0.00, -1.00, -5.0, 19.0)">П</text><text xml:space="preserve" font-family="Helvetica-Light" font-size="93.0" fill="#FEFFFF" transform="matrix(1.00, 0.00, -0.00, -1.00, 59.5, 19.0)">р</text><text xml:space="preserve" font-family="Helvetica-Light" font-size="93.0" fill="#FEFFFF" transform="matrix(1.00, 0.00, -0.00, -1.00, 112.9, 19.0)">о</text><text xml:space="preserve" font-family="Helvetica-Light" font-size="93.0" fill="#FEFFFF" transform="matrix(1.00, 0.00, -0.00, -1.00, 164.6, 19.0)">ф</text><text xml:space="preserve" font-family="Helvetica-Light" font-size="93.0" fill="#FEFFFF" transform="matrix(1.00, 0.00, -0.00, -1.00, 238.9, 19.0)">е</text><text xml:space="preserve" font-family="Helvetica-Light" font-size="93.0" fill="#FEFFFF" transform="matrix(1.00, 0.00, -0.00, -1.00, 287.2, 19.0)">с</text><text xml:space="preserve" font-family="Helvetica-Light" font-size="93.0" fill="#FEFFFF" transform="matrix(1.00, 0.00, -0.00, -1.00, 335.4, 19.0)">с</text><text xml:space="preserve" font-family="Helvetica-Light" font-size="93.0" fill="#FEFFFF" transform="matrix(1.00, 0.00, -0.00, -1.00, 383.7, 19.0)">и</text><text xml:space="preserve" font-family="Helvetica-Light" font-size="93.0" fill="#FEFFFF" transform="matrix(1.00, 0.00, -0.00, -1.00, 434.2, 19.0)">и</text><text xml:space="preserve" font-family="Helvetica-Light" font-size="93.0" fill="#FEFFFF" transform="matrix(1.00, 0.00, -0.00, -1.00, 484.8, 19.0)"> </text><text xml:space="preserve" font-family="Helvetica-Light" font-size="93.0" fill="#FEFFFF" transform="matrix(1.00, 0.00, -0.00, -1.00, 510.6, 19.0)">к</text><text xml:space="preserve" font-family="Helvetica-Light" font-size="93.0" fill="#FEFFFF" transform="matrix(1.00, 0.00, -0.00, -1.00, 556.9, 19.0)">р</text><text xml:space="preserve" font-family="Helvetica-Light" font-size="93.0" fill="#FEFFFF" transform="matrix(1.00, 0.00, -0.00, -1.00, 610.3, 19.0)">и</text><text xml:space="preserve" font-family="Helvetica-Light" font-size="93.0" fill="#FEFFFF" transform="matrix(1.00, 0.00, -0.00, -1.00, 660.9, 19.0)">м</text><text xml:space="preserve" font-family="Helvetica-Light" font-size="93.0" fill="#FEFFFF" transform="matrix(1.00, 0.00, -0.00, -1.00, 723.0, 19.0)">и</text><text xml:space="preserve" font-family="Helvetica-Light" font-size="93.0" fill="#FEFFFF" transform="matrix(1.00, 0.00, -0.00, -1.00, 773.5, 19.0)">н</text><text xml:space="preserve" font-family="Helvetica-Light" font-size="93.0" fill="#FEFFFF" transform="matrix(1.00, 0.00, -0.00, -1.00, 823.5, 19.0)">а</text><text xml:space="preserve" font-family="Helvetica-Light" font-size="93.0" fill="#FEFFFF" transform="matrix(1.00, 0.00, -0.00, -1.00, 871.7, 19.0)">л</text><text xml:space="preserve" font-family="Helvetica-Light" font-size="93.0" fill="#FEFFFF" transform="matrix(1.00, 0.00, -0.00, -1.00, 924.2, 19.0)">ь</text><text xml:space="preserve" font-family="Helvetica-Light" font-size="93.0" fill="#FEFFFF" transform="matrix(1.00, 0.00, -0.00, -1.00, 970.7, 19.0)">н</text><text xml:space="preserve" font-family="Helvetica-Light" font-size="93.0" fill="#FEFFFF" transform="matrix(1.00, 0.00, -0.00, -1.00, 1020.6, 19.0)">о</text><text xml:space="preserve" font-family="Helvetica-Light" font-size="93.0" fill="#FEFFFF" transform="matrix(1.00, 0.00, -0.00, -1.00, 1072.3, 19.0)">й</text></g></svg>