<?xml version="1.0" encoding="UTF-8"?><svg xmlns="http://www.w3.org/2000/svg" xmlns:xlink="http://www.w3.org/1999/xlink" clip-rule="evenodd" stroke-miterlimit="4.00" viewBox="0 0 674 89"><desc>SVG generated by Keynote</desc><defs></defs><g transform="matrix(1.00, 0.00, -0.00, -1.00, 0.0, 89.0)"><g><clipPath id="clip-914"><path d="M 0.0 0.0 L 674.0 0.0 L 674.0 89.0 L 0.0 89.0 Z M 0.0 0.0 "></path></clipPath><g clip-path="url(#clip-914)"><text xml:space="preserve" font-family="Helvetica-Light" font-size="93.0" fill="#FEFFFF" transform="matrix(1.00, 0.00, -0.00, -1.00, -1.0, 19.0)">э</text><text xml:space="preserve" font-family="Helvetica-Light" font-size="93.0" fill="#FEFFFF" transform="matrix(1.00, 0.00, -0.00, -1.00, 47.2, 19.0)">к</text><text xml:space="preserve" font-family="Helvetica-Light" font-size="93.0" fill="#FEFFFF" transform="matrix(1.00, 0.00, -0.00, -1.00, 93.5, 19.0)">о</text><text xml:space="preserve" font-family="Helvetica-Light" font-size="93.0" fill="#FEFFFF" transform="matrix(1.00, 0.00, -0.00, -1.00, 145.2, 19.0)">н</text><text xml:space="preserve" font-family="Helvetica-Light" font-size="93.0" fill="#FEFFFF" transform="matrix(1.00, 0.00, -0.00, -1.00, 195.1, 19.0)">о</text><text xml:space="preserve" font-family="Helvetica-Light" font-size="93.0" fill="#FEFFFF" transform="matrix(1.00, 0.00, -0.00, -1.00, 246.8, 19.0)">м</text><text xml:space="preserve" font-family="Helvetica-Light" font-size="93.0" fill="#FEFFFF" transform="matrix(1.00, 0.00, -0.00, -1.00, 308.9, 19.0)">и</text><text xml:space="preserve" font-family="Helvetica-Light" font-size="93.0" fill="#FEFFFF" transform="matrix(1.00, 0.00, -0.00, -1.00, 359.5, 19.0)">к</text><text xml:space="preserve" font-family="Helvetica-Light" font-size="93.0" fill="#FEFFFF" transform="matrix(1.00, 0.00, -0.00, -1.00, 405.8, 19.0)">и</text><text xml:space="preserve" font-family="Helvetica-Light" font-size="93.0" fill="#FEFFFF" transform="matrix(1.00, 0.00, -0.00, -1.00, 456.4, 19.0)"> </text><text xml:space="preserve" font-family="Helvetica-Light" font-size="93.0" fill="#FEFFFF" transform="matrix(1.00, 0.00, -0.00, -1.00, 482.2, 19.0)">(</text><text xml:space="preserve" font-family="Helvetica-Light" font-size="93.0" fill="#FEFFFF" transform="matrix(1.00, 0.00, -0.00, -1.00, 513.2, 19.0)">Р</text><text xml:space="preserve" font-family="Helvetica-Light" font-size="93.0" fill="#FEFFFF" transform="matrix(1.00, 0.00, -0.00, -1.00, 571.7, 19.0)">Ф</text><text xml:space="preserve" font-family="Helvetica-Light" font-size="93.0" fill="#FEFFFF" transform="matrix(1.00, 0.00, -0.00, -1.00, 646.1, 19.0)">)</text></g></g></g></svg>